<svg width="9276" height="18552" viewBox="0 0 9276 18552" fill="none" xmlns="http://www.w3.org/2000/svg">
<path fill-rule="evenodd" clip-rule="evenodd" d="M2305.7 6587.69C2379.59 6756.73 2559.82 6844.23 2716.44 6787.14L4135.12 6269.84C4343.78 6193.78 4436.55 5940.15 4338.12 5714.94C4240.86 5492.4 3995.93 5387.56 3798.87 5484.11L2443.1 6148.34C2291.54 6222.59 2230.89 6416.54 2305.7 6587.69Z" fill="#FFC999"/>
<path fill-rule="evenodd" clip-rule="evenodd" d="M2650.89 5955.46L2977.11 6703.53L3989.27 6392.8C4210.13 6301.11 4309.67 5938.09 4214.07 5718.92C4118.49 5499.75 3861.76 5401.56 3644.33 5501.03L2650.89 5955.46Z" fill="#597EF7"/>
<path fill-rule="evenodd" clip-rule="evenodd" d="M3711.61 4936.77C3636.12 4881.58 3529.8 4894.71 3466.51 4967.07L2377.85 6211.86C2262.35 6343.94 2281.32 6544.47 2418.86 6645.56C2552.89 6744.07 2744.4 6707.17 2838.89 6564.66L3752.81 5186.14C3807.62 5103.5 3789.47 4993.71 3711.61 4936.77Z" fill="#FFC999"/>
<path fill-rule="evenodd" clip-rule="evenodd" d="M3681.39 5203.23C3681.39 5203.23 3875.67 5217.15 4036.8 5010.23C4161.4 4850.22 4214.53 4862.83 4301.06 4790.52C4387.58 4718.2 4242 4705.32 4054.25 4807.85C3923.86 4891.23 4011.09 4489.95 4144.71 4341.16C4274.45 4196.75 3605.52 4215.01 3520.59 4892.51C3478.72 5226.44 3681.39 5203.23 3681.39 5203.23Z" fill="#FFC999"/>
<path d="M3908.06 4341.25C3910.85 4336.98 3916.56 4335.79 3920.83 4338.58C3922.52 4339.69 3924.49 4341.53 3926.29 4344.26C3938.36 4362.5 3927.57 4390.95 3883.68 4431.18L3879.46 4434.99C3795.09 4510.15 3767.95 4618.89 3788.29 4777.93L3789.47 4786.81C3789.98 4790.54 3790.42 4794.28 3790.77 4798.05C3797.98 4874.82 3772.97 4956.43 3727 5037.24C3712.86 5062.1 3697.72 5085.05 3682.56 5105.56L3676.38 5113.8C3674.38 5116.41 3672.45 5118.89 3670.6 5121.23L3665.02 5128.14C3663.78 5129.64 3662.82 5130.77 3662.18 5131.5C3658.84 5135.35 3653.02 5135.76 3649.17 5132.42C3645.32 5129.08 3644.91 5123.26 3648.25 5119.41L3653.52 5113.05C3657.79 5107.75 3662.57 5101.58 3667.72 5094.6C3682.46 5074.65 3697.2 5052.3 3710.96 5028.12C3755.23 4950.29 3779.19 4872.11 3772.4 4799.78L3771.85 4794.54L3771.19 4789.32C3748.35 4622.96 3774.95 4506.72 3862.36 4425.6L3867.19 4421.21C3907.26 4385.5 3916.34 4364.88 3911.44 4355.36L3910.58 4353.94C3910.58 4353.93 3910.63 4353.96 3910.73 4354.02C3906.46 4351.23 3905.27 4345.51 3908.06 4341.25Z" fill="#DD936F"/>
<path d="M3998.62 4294.9C4021.34 4298.47 4028.51 4320.34 4019.63 4348.31C4011.13 4375.1 3988.88 4407.22 3955.84 4438.74C3936.76 4456.95 3920.12 4481.05 3905.84 4509.61C3893.72 4533.87 3883.98 4559.93 3876.42 4586.01C3874.44 4592.85 3872.72 4599.33 3871.24 4605.34L3868.79 4615.96C3868.35 4618.02 3868.04 4619.56 3867.85 4620.55C3866.93 4625.56 3862.11 4628.87 3857.1 4627.94C3852.09 4627.02 3848.78 4622.2 3849.71 4617.19L3850.73 4612.15C3851.05 4610.67 3851.43 4608.97 3851.87 4607.06C3853.69 4599.15 3855.95 4590.34 3858.7 4580.87C3866.55 4553.8 3876.67 4526.71 3889.34 4501.36C3904.49 4471.03 3922.31 4445.23 3943.1 4425.39C3974.07 4395.85 3994.58 4366.23 4002.05 4342.72C4007.95 4324.11 4004.82 4314.55 3995.75 4313.13C3990.72 4312.34 3987.28 4307.61 3988.07 4302.58C3988.78 4298.11 3992.58 4294.89 3996.96 4294.79L3998.62 4294.9Z" fill="#DD936F"/>
<path d="M4077.39 4298.3C4079.39 4293.61 4084.82 4291.44 4089.5 4293.44C4091.89 4294.46 4094.74 4296.47 4097.38 4299.81C4113.15 4319.79 4101.51 4357.63 4049.02 4419.66L4044.9 4424.48C4041.82 4428.05 4038.82 4431.65 4035.88 4435.28C4002.51 4476.65 3979.32 4520.96 3964.51 4565.25C3959.34 4580.72 3955.58 4595.07 3953.02 4607.91L3951.9 4613.87C3951.1 4618.37 3950.65 4621.66 3950.46 4623.61C3949.96 4628.68 3945.45 4632.39 3940.37 4631.89C3935.3 4631.39 3931.6 4626.88 3932.09 4621.8L3932.7 4617.04C3933.24 4613.34 3933.97 4609.08 3934.93 4604.3C3937.63 4590.72 3941.58 4575.63 3947.01 4559.4C3962.48 4513.12 3986.69 4466.87 4021.52 4423.7L4026.17 4418.03L4030.93 4412.42C4081.79 4353.48 4091.78 4322.5 4082.9 4311.25L4082.16 4310.39C4077.57 4308.4 4075.39 4302.98 4077.39 4298.3Z" fill="#4E5C93"/>
<path fill-rule="evenodd" clip-rule="evenodd" d="M4109.07 5182.93L3674.64 5001.07C3638.68 4986.02 3621.73 4944.66 3636.78 4908.7L4028.17 3973.8C4043.22 3937.85 4084.58 3920.89 4120.54 3935.95L4554.97 4117.81C4590.92 4132.86 4607.85 4174.22 4592.8 4210.18L4201.44 5145.08C4186.38 5181.03 4145.02 5197.99 4109.07 5182.93Z" fill="#4E5C93"/>
<path fill-rule="evenodd" clip-rule="evenodd" d="M4645.63 5607.12L4419.23 5360.03L4490.59 4546.88L5123.71 4605.85L5120.53 5410.53L4645.63 5607.12Z" fill="#FFC999"/>
<path fill-rule="evenodd" clip-rule="evenodd" d="M4328.77 4466.58C4328.77 4466.58 4234.8 4363.2 4191.88 4429.54C4149 4495.9 4213.16 4739.72 4318.12 4749.18C4458.32 4761.81 4328.77 4466.58 4328.77 4466.58Z" fill="#FFC999"/>
<path fill-rule="evenodd" clip-rule="evenodd" d="M4921.83 5104.24C4921.83 5104.24 4710.33 5266.91 4442.16 5091.03C4249.1 4964.42 4238.26 4527.24 4286.03 4208.09C4313.07 4027.48 4399.65 3932.55 4578.03 3884.37C4756.44 3836.19 5235.69 3849.21 5222.24 4382.69C5207.23 4976.92 4921.83 5104.24 4921.83 5104.24Z" fill="#FFC999"/>
<path d="M4590.07 4301.86C4594.74 4300.83 4599.36 4303.33 4601.14 4307.59L4601.67 4309.26L4626.72 4422.91C4626.93 4423.85 4627 4424.82 4626.92 4425.77L4626.7 4427.2L4559.52 4717.93L4675.55 4722.53C4680.38 4722.72 4684.25 4726.41 4684.82 4731.06L4684.88 4732.64C4684.69 4737.47 4681.01 4741.34 4676.36 4741.91L4674.78 4741.98L4547.02 4736.92C4541.48 4736.7 4537.37 4731.95 4537.7 4726.62L4537.93 4725.01L4607.24 4424.98L4582.67 4313.45C4581.64 4308.79 4584.14 4304.17 4588.4 4302.38L4590.07 4301.86Z" fill="#DD936F"/>
<path d="M4743.96 4254.11L4834.89 4267.36L4855.23 4270.19C4923.42 4279.42 4967.13 4282.69 4988.37 4279.15C5002.5 4276.8 5015.86 4286.35 5018.21 4300.48C5020.56 4314.62 5011.01 4327.98 4996.88 4330.33C4968.66 4335.02 4922.77 4331.69 4849.21 4321.73L4810.27 4316.23L4740.17 4305.96C4739.01 4305.8 4737.87 4305.64 4736.74 4305.48C4722.55 4303.49 4712.67 4290.37 4714.67 4276.18C4716.54 4262.83 4728.27 4253.29 4741.47 4253.88L4743.96 4254.11Z" fill="#253368"/>
<path d="M4761.74 4809.6C4769.06 4807.95 4776.33 4812.55 4777.98 4819.87C4779.63 4827.19 4775.03 4834.46 4767.71 4836.11L4763.75 4836.92L4759.69 4837.66C4753.39 4838.77 4746.03 4839.87 4737.66 4840.9C4682.27 4847.69 4615.3 4847.87 4539.88 4837.12C4532.45 4836.06 4527.29 4829.18 4528.35 4821.75C4529.41 4814.32 4536.29 4809.16 4543.72 4810.22C4616.64 4820.61 4681.23 4820.43 4734.35 4813.92L4743.34 4812.74C4744.76 4812.53 4746.14 4812.33 4747.47 4812.13L4754.98 4810.9C4758.41 4810.29 4760.68 4809.84 4761.74 4809.6Z" fill="#FF7946"/>
<path fill-rule="evenodd" clip-rule="evenodd" d="M5154.59 4609.49L5264.71 4407.11C5264.71 4407.11 5339.44 4112.83 5274.68 3983.33C5174.16 3782.39 4930.39 3780.44 4787.37 3723.37C4644.34 3666.27 4647.17 3617.66 4588.28 3624.01C4529.36 3630.35 4297.55 3781.96 4267.11 3946.81C4240.34 4091.74 4266.35 4463.8 4266.35 4463.8C4266.35 4463.8 4317.09 4136.52 4351.33 4050.7C4467.34 4006.27 4883.79 4016.32 5055.97 4075.08C5055.97 4075.08 5067.71 4187.37 5074.04 4266.4C5165.11 4335.72 5154.59 4609.49 5154.59 4609.49Z" fill="#253368"/>
<path d="M4425.1 5071.34C4429.17 5067.84 4435.32 5068.31 4438.82 5072.38L4440.78 5074.53C4443.19 5077.04 4446.94 5080.62 4452.04 5084.98C4463.56 5094.82 4477.57 5104.69 4494.14 5113.93C4584.64 5164.4 4706.29 5175.14 4861.73 5120.68C4866.8 5118.91 4872.35 5121.58 4874.13 5126.65C4875.9 5131.72 4873.23 5137.27 4868.16 5139.05C4707.45 5195.34 4580.02 5184.09 4484.66 5130.92C4466.94 5121.04 4451.87 5110.43 4439.4 5099.78L4434.18 5095.18C4429.42 5090.85 4426.05 5087.39 4424.06 5085.06C4420.56 5080.99 4421.02 5074.84 4425.1 5071.34Z" fill="#DD936F"/>
<path d="M4596.04 4405.7L4689.93 4412.36C4700.65 4413.12 4708.73 4422.43 4707.97 4433.15C4707.26 4443.15 4699.1 4450.85 4689.3 4451.22L4687.18 4451.18L4593.29 4444.52C4582.57 4443.76 4574.5 4434.46 4575.26 4423.74C4575.97 4413.73 4584.12 4406.03 4593.92 4405.67L4596.04 4405.7Z" fill="#253368"/>
<path d="M4617.86 4458.87C4637.7 4456.91 4657.86 4461.79 4677.53 4470.94C4687.33 4475.5 4694.94 4480.1 4699.58 4483.41C4708.34 4489.65 4710.37 4501.8 4704.14 4510.55C4697.9 4519.3 4685.75 4521.34 4677 4515.11C4674.16 4513.08 4668.53 4509.67 4661.12 4506.23C4647.21 4499.76 4633.47 4496.43 4621.69 4497.59C4613.2 4498.43 4605.92 4501.57 4599.49 4507.56C4591.64 4514.89 4579.32 4514.47 4571.99 4506.61C4564.66 4498.75 4565.09 4486.44 4572.94 4479.11C4585.8 4467.11 4601.11 4460.52 4617.86 4458.87Z" fill="#253368"/>
<path d="M4398.39 4218.72C4441.89 4215.96 4487.34 4225.88 4532.18 4243.97C4555.81 4253.5 4574.12 4263.09 4584.95 4269.75C4597.15 4277.25 4600.96 4293.23 4593.46 4305.43C4585.95 4317.64 4569.98 4321.44 4557.77 4313.94L4552.46 4310.87C4550.64 4309.87 4548.47 4308.69 4545.96 4307.38C4536.02 4302.18 4524.86 4296.96 4512.77 4292.08C4474.51 4276.65 4436.27 4268.3 4401.68 4270.49C4379.15 4271.92 4358.98 4277.84 4341.34 4288.71C4329.14 4296.22 4313.16 4292.43 4305.65 4280.23C4298.13 4268.04 4301.93 4252.06 4314.12 4244.54C4339.37 4228.98 4367.75 4220.67 4398.39 4218.72Z" fill="#253368"/>
<path d="M4595.42 4908.46L4671.98 4912.92C4677.34 4913.23 4681.44 4917.83 4681.12 4923.2C4680.84 4928.03 4677.09 4931.83 4672.43 4932.31L4670.85 4932.34L4594.29 4927.89C4588.93 4927.58 4584.83 4922.97 4585.15 4917.61C4585.43 4912.78 4589.18 4908.98 4593.84 4908.5L4595.42 4908.46Z" fill="#DD936F"/>
<path d="M5037.73 4431.8L5191.82 4439.9C5202.55 4440.47 5210.79 4449.62 5210.22 4460.36C5209.7 4470.37 5201.69 4478.22 5191.9 4478.76L5189.77 4478.77L5035.69 4470.67C5024.95 4470.1 5016.71 4460.95 5017.28 4450.21C5017.8 4440.2 5025.81 4432.35 5035.61 4431.81L5037.73 4431.8Z" fill="#253368"/>
<path fill-rule="evenodd" clip-rule="evenodd" d="M5026.93 4420.14L4732.78 4403.07C4712.26 4401.88 4694.65 4417.5 4693.59 4438.02C4691.66 4476.37 4690.25 4537.92 4697.15 4591.1C4705.3 4653.8 4758.87 4695.02 4821.78 4701.6C4900.34 4709.83 4971.03 4713.99 5009.16 4675.18C5067.23 4616.05 5059.87 4512.73 5061.85 4458.35C5062.58 4438.4 5046.88 4421.28 5026.93 4420.14Z" fill="white"/>
<path d="M5027.3 4413.67L4733.15 4396.6L4730.02 4396.54L4727.44 4396.64C4705.85 4398.18 4688.26 4415.53 4687.12 4437.69C4684.32 4493.21 4684.86 4546.76 4690.72 4591.94C4698.97 4655.34 4752.44 4700.87 4821.11 4708.05L4842.31 4710.13C4935.41 4718.57 4981.53 4712.55 5013.78 4679.73C5039.77 4653.26 5054.8 4617.26 5062.01 4572.14L5063.32 4563.41C5066.11 4543.35 5067.14 4524.82 5067.67 4494.63L5068.26 4460.48C5068.28 4459.85 5068.3 4459.22 5068.33 4458.59C5069.19 4435.13 5050.78 4415.01 5027.3 4413.67ZM4732.4 4409.54L5026.55 4426.61C5043.01 4427.55 5055.98 4441.72 5055.37 4458.11L5055.05 4471.14L5054.72 4494.26C5054.11 4528.25 5052.89 4547.1 5049.21 4570.09C5042.38 4612.78 5028.37 4646.37 5004.53 4670.64C4973.89 4701.83 4925.77 4705.98 4822.45 4695.15C4759.43 4688.57 4711 4647.33 4703.58 4590.27C4697.84 4546.02 4697.31 4493.15 4700.06 4438.35C4700.94 4421.47 4715.44 4408.56 4732.4 4409.54Z" fill="#253368"/>
<path d="M4821.43 4480.94C4828.58 4481.35 4834.05 4487.48 4833.64 4494.64C4832.07 4521.71 4849.42 4544.08 4871.41 4545.37C4893.4 4546.64 4913.21 4526.44 4914.77 4499.37C4915.18 4492.21 4921.32 4486.75 4928.47 4487.16C4935.63 4487.57 4941.09 4493.71 4940.68 4500.86C4938.33 4541.52 4907.05 4573.43 4869.9 4571.28C4832.76 4569.09 4805.38 4533.79 4807.73 4493.14C4808.14 4485.99 4814.28 4480.52 4821.43 4480.94Z" fill="#253368"/>
<path fill-rule="evenodd" clip-rule="evenodd" d="M4568.35 4390.24L4235.34 4370.92C4220.17 4418.86 4221.15 4607.73 4275.96 4651.38C4350.18 4695.92 4505.82 4687.55 4532.23 4648.09C4572.29 4588.22 4592.67 4470.77 4594.98 4419.84C4595.69 4404.32 4583.87 4391.14 4568.35 4390.24Z" fill="white"/>
<path d="M4568.72 4383.77L4235.71 4364.45C4232.75 4364.28 4230.05 4366.14 4229.16 4368.97C4207.12 4438.64 4222.97 4617.46 4271.93 4656.45C4346.31 4701.15 4507.56 4696.59 4537.62 4651.69C4572.32 4599.82 4598.18 4492.28 4601.46 4420.13C4602.32 4401.06 4587.77 4384.87 4568.72 4383.77ZM4239.3 4380.86L4240.13 4377.69L4567.97 4396.71C4579.93 4397.4 4589.05 4407.55 4588.51 4419.54C4585.33 4489.54 4559.98 4594.96 4526.84 4644.48C4501.36 4682.55 4347.74 4686.89 4279.3 4645.82C4237.95 4612.82 4222.14 4451.14 4239.3 4380.86Z" fill="#253368"/>
<path d="M4405.8 4456.81C4412.96 4457.23 4418.42 4463.37 4418 4470.52C4416.41 4497.59 4433.76 4519.97 4455.74 4521.24C4477.74 4522.51 4497.57 4502.3 4499.13 4475.24C4499.55 4468.08 4505.68 4462.62 4512.84 4463.03C4519.99 4463.44 4525.46 4469.58 4525.04 4476.73C4522.69 4517.39 4491.39 4549.3 4454.24 4547.15C4417.1 4545 4389.71 4509.66 4392.09 4469C4392.51 4461.85 4398.65 4456.39 4405.8 4456.81Z" fill="#253368"/>
<path d="M4694.19 4392.96L5059.35 4404.57C5070.09 4404.91 5078.52 4413.89 5078.18 4424.63C5077.86 4434.66 5070.02 4442.67 5060.24 4443.41L5058.12 4443.46L4692.96 4431.86C4682.22 4431.52 4673.79 4422.53 4674.13 4411.79C4674.45 4401.77 4682.29 4393.75 4692.07 4393.01L4694.19 4392.96Z" fill="#253368"/>
<path d="M4233.59 4358.69L4590.6 4384.45C4601.31 4385.22 4609.38 4394.54 4608.6 4405.26C4607.88 4415.26 4599.72 4422.95 4589.92 4423.3L4587.79 4423.26L4230.79 4397.5C4220.07 4396.73 4212.01 4387.41 4212.78 4376.69C4213.5 4366.69 4221.66 4359 4231.46 4358.65L4233.59 4358.69Z" fill="#253368"/>
<path fill-rule="evenodd" clip-rule="evenodd" d="M5206.29 4444.84C5244.66 4406.74 5303.28 4397.09 5343.77 4442.59C5409.02 4515.88 5342.42 4782.75 5162.65 4790.68C5094.63 4780 5146.4 4504.28 5206.29 4444.84Z" fill="#FFC999"/>
<path fill-rule="evenodd" clip-rule="evenodd" d="M6460.71 15380C6809 15526.8 6987.73 15315.4 6987.73 15315.4C6987.73 15315.4 6997.6 15241.4 6936.67 15158.7C6860.42 15055.2 6690.57 15018.4 6489.19 14820.4C6334.51 14668.2 6232.44 14431.5 6232.44 14431.5C6120.69 14266.6 5764.39 14463 5764.39 14463C5764.39 14463 5758.36 14803.7 5765.53 14998.7C5765.53 14998.7 5778.44 15106 6045.69 15144.4C6245.62 15173.1 6252.14 15292 6460.71 15380Z" fill="#4E5C93"/>
<path fill-rule="evenodd" clip-rule="evenodd" d="M4463.26 14371.1C4463.26 14371.1 4478.23 14868.1 4438.55 14999C4323.74 15128.7 4222.51 15068.5 4070.1 15197.6C3917.7 15326.7 3597.06 15540.7 3308.45 15316.9C3273.28 15166 3369.02 15098.1 3487.59 15018C3976.38 14687.8 3891.02 14628.1 3980.07 14436.4C4116.68 14142.3 4466.57 14164.5 4463.26 14371.1Z" fill="#4E5C93"/>
<path fill-rule="evenodd" clip-rule="evenodd" d="M5391.04 7785.57C5391.04 7785.57 5552.27 6978.42 5623.64 6680.25C5694.97 6382.05 5803.32 5668.14 5680.16 5614.69C5556.95 5561.23 5261.98 5447.72 5261.98 5447.72C5261.98 5447.72 4969.35 5485.3 4705.02 5541.59C4495.79 5586.15 4555.2 5389.7 4301.51 5431.61C4194.08 5449.38 3775.36 5416.17 3693.8 5480.39C3673.4 5496.45 3631.98 5854.76 3622.39 6072.11C3591.79 6765.85 3761.06 7828.78 3761.06 7828.78C3761.06 7828.78 3660.68 7931.94 3782.37 8065.73C3842.67 8128.37 4103.75 8107.14 4437.96 8107.96C4818.39 8108.88 5265.87 8156.66 5348.92 8084.32C5504.85 7948.44 5391.04 7785.57 5391.04 7785.57Z" fill="#597EF7"/>
<path fill-rule="evenodd" clip-rule="evenodd" d="M4409.17 5327.36L4664.21 5572.21L4358.16 5786.46L4225.54 5459.97L4409.17 5327.36Z" fill="#597EF7"/>
<path fill-rule="evenodd" clip-rule="evenodd" d="M5435.39 7938.87L5473.38 8302.32C5473.38 8302.32 6436.3 7782.04 6626.15 7483.16C6794.72 7217.76 6387.52 6573.47 6387.52 6573.47C6387.52 6573.47 5986.7 6856.37 5912.59 7033.37L5980.02 7231.7L5435.39 7938.87Z" fill="#FFC999"/>
<path fill-rule="evenodd" clip-rule="evenodd" d="M6562.35 6897.4C6562.35 6897.4 6089.13 5901.35 5836.48 5707.48C5583.83 5513.6 5472.35 5617.06 5371.67 5757.02C5308.29 5845.1 5162.79 6094.84 5490.7 6617.51C5737.62 7011.07 5840.99 7156.9 5870.59 7222.64C6280.15 7192.5 6562.35 6897.4 6562.35 6897.4Z" fill="#597EF7"/>
<path fill-rule="evenodd" clip-rule="evenodd" d="M5677.16 14541.9L4597.52 9466.81L4548.98 9456.3L4556.92 14526.4C4556.92 14526.4 4137.32 14650.8 3915.59 14517.7C3906.95 13529.4 3568.97 10319 3667.45 8852.83C3683.3 8616.78 3755.86 8295.94 3770.34 8206.75C4444 8092.91 5362.89 8248.01 5362.89 8248.01L6322.01 14464.6C6322.01 14464.6 5988.92 14641.9 5677.16 14541.9Z" fill="#ADC6FF"/>
<path d="M4192.52 9264.29C4194.62 9259.99 4199.46 9257.94 4203.89 9259.19L4205.53 9259.82L4611.54 9458.23C4616.37 9460.58 4618.37 9466.41 4616.01 9471.24C4613.91 9475.53 4609.08 9477.59 4604.64 9476.34L4603 9475.71L4196.99 9277.3C4192.16 9274.94 4190.16 9269.11 4192.52 9264.29Z" fill="#597EF7"/>
<path fill-rule="evenodd" clip-rule="evenodd" d="M5352.98 8082.2C5352.98 8082.2 4495.18 7955.43 3782.12 8080.33C3776.25 8143.54 3770.13 8221.37 3770.13 8221.37C3770.13 8221.37 4347.07 8079.65 5356.98 8271.21C5354.23 8099.65 5352.98 8082.2 5352.98 8082.2Z" fill="#ADC6FF"/>
<path d="M4142.36 8243.16C4441.89 8228.21 4762.64 8237.99 5075.11 8263.41L5108.4 8266.18C5157.65 8270.39 5203.79 8274.76 5246.35 8279.16L5274.19 8282.1C5291.94 8284.02 5307.9 8285.81 5321.96 8287.46L5348.03 8290.62C5353.36 8291.3 5357.12 8296.18 5356.44 8301.51C5355.75 8306.84 5350.88 8310.6 5345.55 8309.91L5326.54 8307.59L5305.06 8305.1C5294.89 8303.94 5283.9 8302.72 5272.1 8301.45L5244.34 8298.52C5192.46 8293.15 5135.24 8287.82 5073.53 8282.8C4761.84 8257.45 4441.9 8247.69 4143.33 8262.59C4017.99 8268.85 3899.79 8279.41 3789.92 8294.63C3784.6 8295.37 3779.68 8291.65 3778.95 8286.33C3778.21 8281 3781.93 8276.09 3787.25 8275.36C3897.72 8260.05 4016.48 8249.44 4142.36 8243.16Z" fill="#597EF7"/>
<path d="M4145.8 8028.93C4445.33 8013.98 4766.07 8023.76 5078.54 8049.18L5111.83 8051.96C5155.61 8055.69 5196.93 8059.56 5235.46 8063.47L5277.62 8067.88C5295.37 8069.79 5311.33 8071.59 5325.4 8073.23L5351.46 8076.39C5356.79 8077.07 5360.56 8081.95 5359.87 8087.28C5359.19 8092.61 5354.31 8096.37 5348.98 8095.69L5329.97 8093.36C5321.06 8092.31 5311.3 8091.18 5300.72 8089.99L5275.54 8087.22C5216.55 8080.87 5149.9 8074.51 5076.96 8068.58C4765.27 8043.22 4445.34 8033.46 4146.77 8048.37C4021.43 8054.62 3903.23 8065.18 3793.35 8080.4C3788.03 8081.14 3783.12 8077.42 3782.38 8072.1C3781.64 8066.78 3785.36 8061.87 3790.68 8061.13C3901.15 8045.83 4019.91 8035.22 4145.8 8028.93Z" fill="#597EF7"/>
<path d="M4493.24 8062.54C4498.61 8062.51 4502.99 8066.84 4503.03 8072.21L4503.66 8139.21C4504.28 8192.52 4505.15 8251.93 4506.33 8315.91L4507.9 8394.21C4511.25 8550.68 4515.96 8705.86 4522.28 8852.07L4524.46 8900.68C4533.61 9097.95 4545.28 9263.27 4559.76 9386.99C4560.38 9392.33 4556.56 9397.16 4551.23 9397.78C4545.89 9398.41 4541.06 9394.59 4540.43 9389.25L4538.04 9368.21C4523.45 9236.09 4511.83 9060.9 4502.84 8852.91C4495.99 8694.35 4491.02 8525.28 4487.63 8355.47L4485.98 8264.94C4485.61 8242.6 4485.28 8220.93 4484.98 8199.99L4483.57 8072.33C4483.54 8066.96 4487.86 8062.57 4493.24 8062.54Z" fill="#597EF7"/>
<path fill-rule="evenodd" clip-rule="evenodd" d="M4326.74 8132.91C4326.36 8157.1 4341.31 8176.96 4360.14 8177.29C4378.94 8177.59 4394.52 8158.21 4394.9 8134C4395.28 8109.81 4380.36 8089.95 4361.52 8089.62C4342.69 8089.32 4327.12 8108.7 4326.74 8132.91Z" fill="white"/>
<path fill-rule="evenodd" clip-rule="evenodd" d="M4662.83 5552.25L4898.93 5862.87L5251.62 5448.39L5122.45 5286.91L4662.83 5552.25Z" fill="#597EF7"/>
<path d="M4635.58 5576.75C4638.05 5570.03 4645.51 5566.58 4652.24 5569.06C4658.96 5571.53 4662.41 5578.99 4659.93 5585.72L4657.83 5591.97L4655.52 5599.35C4654.71 5602.04 4653.85 5604.95 4652.94 5608.09L4651.54 5612.98C4644.7 5637.24 4637.06 5668.24 4628.81 5706.59L4624.87 5725.25C4602.55 5832.92 4580.29 5973.59 4559.42 6151.37L4555.53 6185.16C4532.32 6389.89 4512.39 6630.49 4496.65 6909.82L4495.35 6933.18C4471.91 7358.5 4477.34 7723.27 4497.72 7995.68C4498.26 8002.82 4492.9 8009.05 4485.75 8009.59C4478.6 8010.12 4472.37 8004.76 4471.84 7997.61L4469.81 7969.48C4451.37 7703.99 4446.89 7356.23 4468.26 6953.39L4469.43 6931.76C4485.83 6634.13 4506.94 6379.74 4531.69 6165.2L4533.65 6148.35C4555.22 5964.58 4578.3 5820.11 4601.45 5710.45L4607.25 5683.71C4614.17 5652.72 4620.65 5626.92 4626.57 5605.93L4629.39 5596.14C4630.29 5593.1 4631.14 5590.3 4631.95 5587.71L4635.26 5577.64C4635.38 5577.3 4635.48 5577 4635.58 5576.75Z" fill="#253368"/>
<path d="M3594.12 5976.47C3598.99 5969.74 3608.26 5968.13 3615 5973.79C3619.99 5977.97 3621.04 5985.12 3617.73 5990.51L3616.6 5992.07L3615.3 5993.38L3615.08 5994.89L3614.57 5999.4C3614.33 6001.93 3614.12 6004.88 3613.94 6008.21L3613.77 6011.66C3612.92 6030.65 3613.02 6059.42 3614.08 6096.71L3615.17 6129.12C3618.45 6215.08 3625.68 6332.06 3636.41 6469.29L3639.59 6509.3C3668.4 6865.87 3715.71 7305.12 3778.01 7771.51C3778.32 7773.81 3778 7776.14 3777.1 7778.28L3773.68 7786.95C3773.08 7788.54 3772.43 7790.3 3771.73 7792.21C3767.62 7803.46 3763.5 7815.93 3759.66 7829.25C3750.41 7861.38 3744.25 7893.17 3742.63 7922.63C3740.08 7968.96 3749.01 8005.17 3771.18 8028.08C3776.17 8033.23 3776.04 8041.44 3770.89 8046.43C3765.74 8051.41 3757.52 8051.28 3752.54 8046.13C3724.41 8017.08 3713.81 7974.06 3716.72 7921.2C3718.46 7889.55 3724.97 7855.92 3734.72 7822.07C3738.74 7808.13 3743.04 7795.09 3747.35 7783.31L3750.36 7775.26L3751.83 7771.5L3748.77 7748.55C3688.14 7291.55 3642.02 6861.67 3613.72 6511.38L3608.43 6444.08C3598.14 6309.25 3591.39 6195.38 3588.63 6113.2L3587.76 6082.72C3587.16 6056.65 3587.09 6035.23 3587.54 6018.9L3587.84 6010.51C3588.33 5999.62 3589.11 5991.56 3590.27 5986.1C3591.11 5982.17 3592.17 5979.15 3594.12 5976.47Z" fill="#253368"/>
<path d="M3892.08 5985.79C3878.74 5989.54 3865.59 5993.61 3852.65 5998.03C3847.23 5999.88 3843.55 6004.94 3843.46 6010.67L3842.47 6075.76C3841.24 6161.23 3840.39 6241.38 3839.86 6315.42L3839.31 6420.52L3839.25 6448.09L3839.24 6478.1C3839.25 6482.58 3841.47 6486.76 3845.17 6489.29L4047.74 6627.59C4051.99 6630.49 4057.53 6630.74 4062.03 6628.22L4324.28 6481.5C4328.3 6479.25 4330.9 6475.12 4331.2 6470.52L4362.62 5986.41C4363.05 5979.73 4358.54 5973.72 4352 5972.27L4344.78 5970.79C4342.39 5970.33 4339.57 5969.8 4336.34 5969.22L4323.25 5966.98C4314.13 5965.49 4304.21 5964.03 4293.57 5962.64C4164.15 5945.69 4024.08 5948.75 3892.08 5985.79ZM4290.04 5989.58C4302.98 5991.28 4314.79 5993.07 4325.34 5994.88L4334.72 5996.53L4304.55 6461.39L4056.09 6600.38L3866.41 6470.88L3866.6 6390.11L3867.04 6315.61L3867.87 6220.02C3868.14 6193.71 3868.45 6166.75 3868.79 6139.19L3870.47 6020.76L3861.43 6023.75C3873.89 6019.5 3886.56 6015.57 3899.42 6011.96C4027.36 5976.06 4163.95 5973.08 4290.04 5989.58Z" fill="#253368"/>
<path fill-rule="evenodd" clip-rule="evenodd" d="M5189.41 7788.81C5189.41 7788.81 5404.62 7584.15 5476.09 7592.44C5586.86 7605.26 5509.08 7819.41 5509.08 7819.41C5509.08 7819.41 5603.06 7882.97 5539.27 7991.54C5577.78 8098.07 5518.54 8148.29 5518.54 8148.29C5518.54 8148.29 5579.39 8229.6 5490.71 8293.95C5402.04 8358.33 5202.51 8336.92 5233.98 8198.62C5154.85 8120.68 5221.83 8045.02 5221.83 8045.02C5221.83 8045.02 5164.6 7971.08 5231.48 7899.06C5173.57 7865.28 5167.16 7810.39 5189.41 7788.81Z" fill="#FFC999"/>
<path d="M5440.48 7769.83C5445.16 7767.18 5451.1 7768.83 5453.74 7773.51C5456.09 7777.67 5455.04 7782.82 5451.5 7785.77L5450.05 7786.77L5236.26 7907.54C5231.58 7910.18 5225.65 7908.53 5223 7903.85C5220.66 7899.69 5221.7 7894.54 5225.25 7891.59L5226.69 7890.59L5440.48 7769.83Z" fill="#DD936F"/>
<path d="M5501.92 7812.81C5505.57 7808.86 5511.72 7808.62 5515.67 7812.26L5517.9 7814.41C5519.63 7816.14 5521.84 7818.46 5524.41 7821.33C5530.77 7828.44 5537.12 7836.52 5543.06 7845.46C5573.85 7891.85 5581.9 7941.35 5553.02 7988.42L5550.25 7992.72L5550.73 7993.85C5573.23 8050.53 5569.08 8095.98 5547.6 8130.11L5545.23 8133.72C5540.08 8141.28 5534.87 8147.1 5530.31 8151.28L5528.26 8153.06L5527.82 8247.07C5527.8 8251.9 5524.25 8255.9 5519.63 8256.63L5518.05 8256.75C5513.21 8256.73 5509.22 8253.18 5508.49 8248.55L5508.37 8246.97L5508.83 8148.24C5508.84 8145.58 5509.94 8143.07 5511.83 8141.26L5514.38 8139.26C5515.23 8138.57 5516.36 8137.59 5517.7 8136.32C5521.58 8132.66 5525.49 8128.14 5529.15 8122.76C5549.75 8092.53 5553.87 8050.84 5530.31 7995.34C5528.98 7992.22 5529.38 7988.63 5531.36 7985.87C5561.48 7943.9 5555.55 7899.47 5526.84 7856.22C5521.46 7848.11 5515.68 7840.75 5509.91 7834.3L5505.43 7829.48C5504.18 7828.18 5503.17 7827.2 5502.47 7826.56C5498.53 7822.91 5498.28 7816.76 5501.92 7812.81Z" fill="#DD936F"/>
<path d="M5424.73 7980.47C5429.92 7979.08 5435.26 7982.16 5436.65 7987.35C5437.89 7991.96 5435.59 7996.69 5431.42 7998.66L5429.77 7999.26L5224.35 8054.4C5219.16 8055.8 5213.83 8052.72 5212.43 8047.53C5211.2 8042.92 5213.49 8038.19 5217.66 8036.22L5219.31 8035.61L5424.73 7980.47Z" fill="#DD936F"/>
<path d="M5430.13 8155.68C5435.43 8154.78 5440.45 8158.35 5441.34 8163.65C5442.15 8168.42 5439.34 8172.96 5434.9 8174.47L5433.37 8174.86L5235.58 8208.21C5230.28 8209.1 5225.26 8205.53 5224.37 8200.23C5223.57 8195.46 5226.38 8190.92 5230.81 8189.41L5232.35 8189.02L5430.13 8155.68Z" fill="#DD936F"/>
<path fill-rule="evenodd" clip-rule="evenodd" d="M4644.48 5785.73C4644.07 5809.94 4660.13 5829.81 4680.29 5830.13C4700.46 5830.46 4717.12 5811.11 4717.52 5786.9C4717.9 5762.71 4701.87 5742.82 4681.71 5742.49C4661.51 5742.17 4644.86 5761.52 4644.48 5785.73Z" fill="white"/>
<path fill-rule="evenodd" clip-rule="evenodd" d="M4586.2 6230.42C4585.82 6254.6 4601.85 6274.5 4622.02 6274.82C4642.18 6275.15 4658.84 6255.8 4659.25 6231.59C4659.63 6207.4 4643.59 6187.51 4623.43 6187.18C4603.24 6186.85 4586.58 6206.2 4586.2 6230.42Z" fill="white"/>
<path fill-rule="evenodd" clip-rule="evenodd" d="M4549.24 6711.96C4548.86 6736.18 4564.89 6756.04 4585.06 6756.37C4605.22 6756.69 4621.88 6737.35 4622.29 6713.13C4622.67 6688.95 4606.64 6669.05 4586.47 6668.73C4566.28 6668.4 4549.62 6687.78 4549.24 6711.96Z" fill="white"/>
<path fill-rule="evenodd" clip-rule="evenodd" d="M4534.66 7164.65C4534.28 7188.84 4550.31 7208.73 4570.48 7209.06C4590.64 7209.39 4607.3 7190.04 4607.71 7165.82C4608.09 7141.64 4592.05 7121.74 4571.89 7121.42C4551.7 7121.09 4535.07 7140.44 4534.66 7164.65Z" fill="white"/>
<path fill-rule="evenodd" clip-rule="evenodd" d="M4532.35 7763.64C4531.97 7787.86 4548 7807.72 4568.17 7808.05C4588.33 7808.37 4604.99 7789.03 4605.4 7764.81C4605.78 7740.62 4589.74 7720.73 4569.58 7720.41C4549.39 7720.08 4532.73 7739.43 4532.35 7763.64Z" fill="white"/>
<path d="M5237.17 5452.67C5241.8 5447.2 5249.99 5446.53 5255.46 5451.16C5260.43 5455.38 5261.44 5462.53 5258.1 5467.9L5256.96 5469.45L4916.12 5871.38C4911.39 5876.96 4903.12 5877.45 4897.77 5872.83L4896.39 5871.45L4650.17 5585.02C4645.5 5579.58 4646.12 5571.39 4651.56 5566.72C4656.5 5562.47 4663.72 5562.6 4668.5 5566.74L4669.86 5568.1L4906.15 5842.99L5237.17 5452.67Z" fill="#253368"/>
<path d="M4251.09 5460.3C4257.35 5458.31 4264.01 5461.31 4266.75 5467.09L4267.39 5468.73L4364.9 5775.07L4642.43 5561.25C4647.6 5557.28 4654.8 5557.79 4659.35 5562.18L4660.63 5563.61C4664.61 5568.77 4664.1 5575.98 4659.71 5580.53L4658.27 5581.81L4366.08 5806.94C4359.42 5812.06 4349.9 5809.57 4346.44 5802.24L4345.8 5800.59L4242.66 5476.6C4240.49 5469.77 4244.26 5462.48 4251.09 5460.3Z" fill="#253368"/>
<path d="M4280.1 8250.04C4285.41 8250.84 4289.08 8255.79 4288.29 8261.1L4286.94 8270.77L4285.24 8283.96C4282.94 8302.41 4280.65 8323.3 4278.5 8346.22C4268.71 8450.87 4265.37 8558.82 4272.32 8659.49C4288.14 8888.77 4353.7 9031.73 4481.43 9049.13C4486.76 9049.86 4490.48 9054.76 4489.76 9060.08C4489.03 9065.41 4484.13 9069.13 4478.81 9068.41C4338.46 9049.29 4269.31 8898.5 4252.91 8660.83C4245.88 8558.96 4249.25 8450.02 4259.13 8344.41L4261.02 8325.1C4262.3 8312.56 4263.61 8300.74 4264.94 8289.69L4267.66 8268.18L4269.04 8258.23C4269.76 8253.45 4273.84 8250 4278.52 8249.94L4280.1 8250.04Z" fill="#597EF7"/>
<path d="M5815.24 5795.42C5820.36 5789.93 5828.96 5789.64 5834.45 5794.76C5839.93 5799.88 5840.23 5808.47 5835.11 5813.96L5831.82 5817.62C5830.42 5819.22 5828.71 5821.21 5826.72 5823.57L5824.64 5826.05C5816.09 5836.32 5806.54 5848.54 5796.24 5862.69C5766.71 5903.23 5737.15 5950.95 5709.55 6005.5C5599.34 6223.29 5552.17 6479.84 5603.86 6769.43C5605.18 6776.82 5600.26 6783.88 5592.87 6785.2C5585.49 6786.52 5578.43 6781.6 5577.11 6774.21C5524.32 6478.45 5572.57 6216.01 5685.3 5993.23C5713.59 5937.33 5743.91 5888.38 5774.27 5846.69C5784.93 5832.06 5794.84 5819.37 5803.76 5808.66L5808.02 5803.6C5811.26 5799.81 5813.69 5797.08 5815.24 5795.42Z" fill="#253368"/>
<path d="M6552.52 6888.01C6557.71 6882.58 6566.31 6882.39 6571.73 6887.57C6577.16 6892.76 6577.36 6901.36 6572.17 6906.78L6563.45 6915.55L6557.68 6921.16C6545.97 6932.43 6532.3 6944.97 6516.79 6958.47C6472.52 6996.98 6422.29 7035.47 6367.02 7071.41C6207.97 7174.82 6040.01 7236.77 5870.54 7236.22C5863.04 7236.2 5856.98 7230.1 5857 7222.59C5857.02 7215.09 5863.13 7209.02 5870.63 7209.05C6034.06 7209.57 6197.22 7149.4 6352.2 7048.63C6406.35 7013.42 6455.59 6975.68 6498.95 6937.96L6511.5 6926.9C6521.57 6917.89 6530.7 6909.41 6538.83 6901.58L6548.97 6891.64C6550.47 6890.13 6551.66 6888.91 6552.52 6888.01Z" fill="#253368"/>
<path d="M5274.61 4476.33C5279.6 4474.32 5285.27 4476.72 5287.28 4481.7C5289.3 4486.68 5286.89 4492.36 5281.91 4494.37L5279.33 4495.52C5277.72 4496.29 5275.66 4497.33 5273.25 4498.65C5266.5 4502.38 5259.74 4506.89 5253.48 4512.19C5231.63 4530.63 5221.3 4553.18 5227.74 4580.82C5229.46 4588.24 5232.31 4591.75 5239.52 4596.05L5244.01 4598.57C5258.95 4606.73 5265.58 4613.93 5267.34 4630.08C5269.97 4654.42 5258.65 4673.03 5238.94 4685.96C5228.73 4692.66 5218.62 4696.51 5211.55 4698.24C5206.33 4699.52 5201.06 4696.32 5199.79 4691.1C5198.51 4685.88 5201.71 4680.62 5206.93 4679.34L5208.83 4678.8C5210.02 4678.43 5211.57 4677.9 5213.38 4677.21C5218.48 4675.27 5223.57 4672.77 5228.27 4669.69C5242.39 4660.42 5249.74 4648.34 5247.99 4632.17C5247.15 4624.45 5245 4621.55 5237.01 4616.94L5232.7 4614.56C5219.2 4607.12 5212.19 4599.87 5208.78 4585.23C5200.47 4549.55 5213.98 4520.07 5240.92 4497.32C5248.24 4491.14 5256.05 4485.92 5263.86 4481.61C5268.59 4479.01 5272.33 4477.26 5274.61 4476.33Z" fill="#DD936F"/>
<path d="M4107.35 9425.69L4428.43 9446.16C4433.8 9446.5 4437.87 9451.12 4437.52 9456.48C4437.22 9461.31 4433.44 9465.09 4428.78 9465.55L4427.2 9465.58L4106.11 9445.11C4100.75 9444.77 4096.68 9440.15 4097.02 9434.78C4097.33 9429.96 4101.11 9426.18 4105.77 9425.72L4107.35 9425.69Z" fill="#597EF7"/>
<path d="M2872.14 6478.64C2878.04 6475.89 2884.96 6477.96 2888.45 6483.24L2889.38 6484.91L2984.01 6687.67L3602.68 6487.73C3608.93 6485.71 3615.6 6488.69 3618.36 6494.45L3619.02 6496.09C3621.04 6502.34 3618.06 6509.01 3612.3 6511.77L3610.66 6512.43L2981.11 6715.89C2975.5 6717.7 2969.47 6715.5 2966.3 6710.72L2965.36 6709.03L2865.87 6495.89C2862.84 6489.4 2865.64 6481.68 2872.14 6478.64Z" fill="#253368"/>
<path d="M3761.57 5108.78C3764.52 5104.28 3770.55 5103.02 3775.04 5105.96C3779.04 5108.58 3780.48 5113.64 3778.68 5117.88L3777.85 5119.43L2799.53 6614.1C2796.58 6618.6 2790.55 6619.86 2786.06 6616.91C2782.06 6614.3 2780.62 6609.24 2782.42 6604.99L2783.25 6603.44L3761.57 5108.78Z" fill="#DD936F"/>
</svg>
