<svg width="512" height="1024" viewBox="0 0 512 1024" fill="none" xmlns="http://www.w3.org/2000/svg">
<path fill-rule="evenodd" clip-rule="evenodd" d="M251.632 663.561C251.632 672.735 244.195 680.171 235.023 680.171C225.851 680.171 218.414 672.735 218.414 663.561C218.414 654.389 225.851 646.953 235.023 646.953C244.195 646.953 251.632 654.389 251.632 663.561Z" fill="#253368"/>
<path fill-rule="evenodd" clip-rule="evenodd" d="M231.906 813.036H238.335V668.52H231.906V813.036Z" fill="#253368"/>
<path fill-rule="evenodd" clip-rule="evenodd" d="M231.906 813.039L157.028 825.511L152.195 822.021L231.906 798.543V813.039Z" fill="#253368"/>
<path fill-rule="evenodd" clip-rule="evenodd" d="M238.336 813.039L313.214 825.511L318.046 822.021L238.336 798.543V813.039Z" fill="#253368"/>
<path fill-rule="evenodd" clip-rule="evenodd" d="M230.02 829.807H240.22V808.867H230.02V829.807Z" fill="#253368"/>
<path fill-rule="evenodd" clip-rule="evenodd" d="M164.046 830.083C164.046 834.864 160.169 838.74 155.388 838.74C150.607 838.74 146.73 834.864 146.73 830.083C146.73 825.301 150.607 821.426 155.388 821.426C160.169 821.426 164.046 825.301 164.046 830.083Z" fill="#253368"/>
<path fill-rule="evenodd" clip-rule="evenodd" d="M243.78 830.083C243.78 834.864 239.904 838.74 235.122 838.74C230.341 838.74 226.465 834.864 226.465 830.083C226.465 825.301 230.341 821.426 235.122 821.426C239.904 821.426 243.78 825.301 243.78 830.083Z" fill="#253368"/>
<path fill-rule="evenodd" clip-rule="evenodd" d="M324.272 830.083C324.272 834.864 320.396 838.74 315.614 838.74C310.833 838.74 306.957 834.864 306.957 830.083C306.957 825.301 310.833 821.426 315.614 821.426C320.396 821.426 324.272 825.301 324.272 830.083Z" fill="#253368"/>
<path fill-rule="evenodd" clip-rule="evenodd" d="M339.133 660.511H130.918C130.918 640.046 147.507 623.457 167.972 623.457H302.078C322.542 623.457 339.133 640.046 339.133 660.511Z" fill="#A3B5D6"/>
<path fill-rule="evenodd" clip-rule="evenodd" d="M364.851 825.39C384.022 833.619 393.963 822.015 393.963 822.015C393.963 822.015 394.534 817.935 391.2 813.348C387.028 807.609 377.665 805.516 366.622 794.513C358.14 786.061 356.866 767.567 356.866 767.567C350.757 758.425 330.703 764.018 330.703 764.018C330.703 764.018 326.29 793.331 326.617 804.095C326.617 804.095 327.289 810.024 342.027 812.24C353.053 813.896 353.368 820.461 364.851 825.39Z" fill="#4E5C93"/>
<path fill-rule="evenodd" clip-rule="evenodd" d="M386.948 619.183C387.791 606.244 378.271 594.946 365.378 593.58L235.154 579.784C218.494 578.019 203.713 590.472 202.624 607.191C201.536 623.91 214.58 638.173 231.328 638.581L362.242 641.775C375.203 642.091 386.107 632.122 386.948 619.183Z" fill="#ADC6FF"/>
<path fill-rule="evenodd" clip-rule="evenodd" d="M327.305 778.13L340.376 615.696C341.465 602.148 353.606 592.229 367.097 593.859H367.099C380.441 595.47 389.84 607.752 387.908 621.053L362.95 782.607C362.95 782.607 346.831 788.435 327.305 778.13Z" fill="#ADC6FF"/>
<path fill-rule="evenodd" clip-rule="evenodd" d="M325.007 849.894C344.178 858.123 354.119 846.519 354.119 846.519C354.119 846.519 354.69 842.439 351.357 837.854C347.186 832.113 337.823 830.019 326.78 819.017C318.296 810.564 312.749 797.462 312.749 797.462C306.639 788.319 287.241 793.767 287.241 793.767C287.241 793.767 286.446 817.835 286.773 828.599C286.773 828.599 287.445 834.528 302.183 836.744C313.209 838.4 313.526 844.965 325.007 849.894Z" fill="#4E5C93"/>
<path fill-rule="evenodd" clip-rule="evenodd" d="M334.64 450.72C339.773 452.989 342.044 458.401 339.829 463.095L297.686 552.444C293.732 560.827 282.616 564.507 273.434 560.47C264.271 556.441 260.834 546.393 265.93 538.527L320.335 454.552C323.207 450.118 329.48 448.438 334.64 450.72Z" fill="#FFC999"/>
<path fill-rule="evenodd" clip-rule="evenodd" d="M286.111 560.127C276.196 562.442 266.197 556.611 263.329 546.842L237.334 458.346C233.512 445.331 241.415 431.778 254.624 428.694C267.68 425.648 280.649 434.067 283.181 447.231L300.601 537.806C302.548 547.929 296.15 557.784 286.111 560.127Z" fill="#FFC999"/>
<path fill-rule="evenodd" clip-rule="evenodd" d="M295.727 505.532L251.859 515.77L237.113 457.303C233.885 444.506 241.779 431.549 254.633 428.549C267.485 425.549 280.299 433.673 283.07 446.578L295.727 505.532Z" fill="#597EF7"/>
<path fill-rule="evenodd" clip-rule="evenodd" d="M230.098 411.779L232.07 372.827L197.035 370.762L190.918 407.545C189.071 418.654 196.88 429.055 208.066 430.379C219.409 431.725 229.52 423.187 230.098 411.779Z" fill="#FFC999"/>
<path fill-rule="evenodd" clip-rule="evenodd" d="M241.569 369.795C241.569 369.795 247.56 364.94 249.346 368.918C251.133 372.896 245.598 385.664 239.79 385.304C232.036 384.824 241.569 369.795 241.569 369.795Z" fill="#FFC999"/>
<path fill-rule="evenodd" clip-rule="evenodd" d="M203.889 399.638C203.889 399.638 214.071 410.279 230.172 402.921C241.761 397.625 246.003 373.862 246.058 356.05C246.09 345.97 242.16 340.067 232.828 335.949C223.497 331.832 197.239 328.542 193.521 357.762C189.378 390.309 203.889 399.638 203.889 399.638Z" fill="#FFC999"/>
<path d="M228.684 358.626C228.438 358.531 228.165 358.629 228.032 358.846L227.989 358.933L225.673 364.926C225.654 364.976 225.642 365.028 225.639 365.08L225.639 365.16L226.877 381.582L220.51 380.865C220.245 380.835 220.003 381.004 219.933 381.253L219.917 381.339C219.887 381.604 220.055 381.846 220.304 381.916L220.39 381.933L227.401 382.723C227.705 382.757 227.97 382.532 227.996 382.239L227.997 382.149L226.719 365.198L228.991 359.321C229.086 359.075 228.988 358.802 228.771 358.669L228.684 358.626Z" fill="#DD936F"/>
<path d="M207.143 354.064C206.391 353.818 205.583 354.227 205.337 354.979C205.091 355.73 205.5 356.539 206.252 356.785C207.761 357.279 210.308 357.479 214.45 357.549L217.988 357.581L220.652 357.6C221.443 357.61 222.092 356.976 222.101 356.186C222.111 355.395 221.478 354.746 220.687 354.737L215.396 354.698L214.145 354.679C210.538 354.608 208.239 354.423 207.143 354.064Z" fill="#253368"/>
<path d="M215.082 384.896C214.696 384.745 214.261 384.935 214.11 385.321C213.959 385.706 214.15 386.141 214.535 386.292L214.716 386.36C214.895 386.424 215.148 386.509 215.47 386.609C216.213 386.838 217.078 387.067 218.057 387.281C220.705 387.857 223.69 388.215 226.957 388.249C227.371 388.253 227.711 387.921 227.715 387.507C227.719 387.092 227.387 386.753 226.972 386.749C223.812 386.717 220.928 386.371 218.376 385.815C217.44 385.611 216.616 385.393 215.913 385.175L215.335 384.987C215.225 384.949 215.14 384.918 215.082 384.896Z" fill="#FF7946"/>
<path fill-rule="evenodd" clip-rule="evenodd" d="M195.318 370.7L190.999 358.739C190.999 358.739 189.378 342.058 193.992 335.534C201.154 325.409 214.471 327.337 222.751 325.417C231.031 323.497 231.283 320.821 234.442 321.658C237.604 322.495 248.986 332.702 249.271 341.95C249.522 350.081 244.998 370.165 244.998 370.165C244.998 370.165 244.962 351.884 243.81 346.916C237.85 343.525 215.044 340.595 205.159 342.365C205.159 342.365 203.583 348.394 202.576 352.652C197.029 355.676 195.318 370.7 195.318 370.7Z" fill="#253368"/>
<path d="M207.032 401.036C206.77 400.896 206.445 400.996 206.305 401.258C206.166 401.519 206.265 401.845 206.527 401.984C215.387 406.696 222.762 406.886 228.465 404.356C229.245 404.01 229.921 403.638 230.492 403.264L230.763 403.081C230.967 402.939 231.116 402.824 231.207 402.745C231.432 402.552 231.458 402.213 231.265 401.988C231.072 401.763 230.733 401.737 230.508 401.93L230.401 402.017C230.29 402.102 230.124 402.222 229.903 402.366C229.38 402.708 228.755 403.052 228.029 403.374C222.625 405.772 215.596 405.591 207.032 401.036Z" fill="#DD936F"/>
<path d="M222.315 363.824C221.724 363.776 221.206 364.216 221.158 364.808C221.113 365.359 221.494 365.847 222.025 365.949L222.142 365.965L227.32 366.385C227.911 366.433 228.429 365.992 228.477 365.401C228.522 364.849 228.141 364.361 227.609 364.26L227.493 364.244L222.315 363.824Z" fill="#253368"/>
<path d="M225.146 366.834C224.183 366.735 223.194 366.891 222.227 367.207C221.77 367.356 221.415 367.507 221.197 367.617C220.667 367.884 220.454 368.53 220.722 369.06C220.971 369.554 221.55 369.772 222.057 369.582L222.304 369.47C222.446 369.408 222.647 369.329 222.893 369.249C223.599 369.019 224.305 368.907 224.926 368.971C225.572 369.038 226.076 369.288 226.458 369.771C226.826 370.237 227.501 370.316 227.967 369.948C228.432 369.581 228.511 368.905 228.144 368.44C227.38 367.473 226.341 366.957 225.146 366.834Z" fill="#253368"/>
<path d="M238.476 355.471C236.231 355.23 233.872 355.52 231.562 356.147C230.515 356.431 229.71 356.718 229.235 356.919C228.506 357.227 228.165 358.067 228.473 358.795C228.781 359.523 229.62 359.865 230.349 359.557L230.629 359.447C230.695 359.423 230.771 359.395 230.855 359.365C231.288 359.211 231.778 359.056 232.312 358.911C234.307 358.369 236.329 358.12 238.17 358.318C239.839 358.498 241.252 359.038 242.368 359.986C242.971 360.498 243.874 360.425 244.386 359.822C244.898 359.219 244.824 358.316 244.222 357.804C242.633 356.455 240.682 355.709 238.476 355.471Z" fill="#253368"/>
<path d="M219.119 391.284C218.823 391.256 218.561 391.473 218.534 391.768C218.509 392.034 218.682 392.273 218.932 392.338L219.018 392.353L223.233 392.749C223.528 392.777 223.79 392.56 223.818 392.265C223.843 391.999 223.67 391.76 223.42 391.695L223.334 391.68L219.119 391.284Z" fill="#DD936F"/>
<path d="M194.702 361.134C194.112 361.075 193.586 361.506 193.527 362.096C193.472 362.647 193.843 363.142 194.373 363.254L194.489 363.272L202.964 364.116C203.554 364.175 204.08 363.744 204.139 363.154C204.194 362.603 203.822 362.108 203.293 361.997L203.177 361.979L194.702 361.134Z" fill="#253368"/>
<path fill-rule="evenodd" clip-rule="evenodd" d="M203.862 361.435L220.053 362.959C221.184 363.064 222.015 364.064 221.899 365.194C221.686 367.301 221.248 370.672 220.428 373.514C219.46 376.868 216.193 378.67 212.706 378.503C208.351 378.296 204.459 377.935 202.704 375.499C200.026 371.788 201.292 366.212 201.639 363.229C201.765 362.134 202.765 361.331 203.862 361.435Z" fill="white"/>
<path d="M203.897 361.077L220.088 362.601C221.418 362.724 222.393 363.902 222.257 365.229C221.951 368.259 221.471 371.193 220.773 373.612C219.795 377.003 216.498 379.041 212.69 378.859L211.897 378.818C206.482 378.512 203.935 377.816 202.415 375.706C201.344 374.221 200.813 372.384 200.702 370.205C200.636 368.899 200.71 367.628 200.912 365.978L201.267 363.339C201.273 363.286 201.279 363.236 201.285 363.186C201.433 361.899 202.605 360.955 203.897 361.077ZM203.83 361.789C202.925 361.704 202.099 362.369 201.996 363.268L201.933 363.771L201.733 365.216L201.623 366.057C201.425 367.673 201.353 368.91 201.417 370.168C201.522 372.221 202.014 373.928 202.996 375.288C204.406 377.245 206.993 377.872 212.725 378.144C216.219 378.311 219.205 376.466 220.086 373.414C220.77 371.045 221.243 368.148 221.545 365.156C221.64 364.226 220.957 363.4 220.021 363.313L203.83 361.789Z" fill="#253368"/>
<path fill-rule="evenodd" clip-rule="evenodd" d="M229.133 363.632L247.465 365.357C247.891 368.1 246.262 378.396 242.908 380.321C238.484 382.131 230.063 380.375 228.952 378.002C227.266 374.4 227.134 367.823 227.434 365.024C227.524 364.172 228.278 363.552 229.133 363.632Z" fill="white"/>
<path d="M229.167 363.274L247.498 364.999C247.662 365.014 247.793 365.139 247.818 365.3C248.438 369.289 246.081 378.911 243.086 380.63C238.652 382.448 229.893 380.852 228.628 378.152C227.167 375.031 226.654 368.946 227.078 364.984C227.189 363.937 228.117 363.176 229.167 363.274ZM229.1 363.986C228.441 363.925 227.859 364.402 227.79 365.06C227.378 368.904 227.881 374.869 229.276 377.849C230.348 380.138 238.693 381.658 242.772 379.988L242.918 379.896C245.391 378.197 247.514 369.743 247.164 365.847L247.148 365.684L229.1 363.986Z" fill="#253368"/>
<path d="M202.225 360.313C201.637 360.241 201.102 360.661 201.031 361.25C200.964 361.8 201.326 362.302 201.853 362.425L201.968 362.445L221.989 364.86C222.578 364.931 223.113 364.511 223.184 363.922C223.25 363.373 222.889 362.87 222.361 362.748L222.246 362.728L202.225 360.313Z" fill="#253368"/>
<path d="M227.969 363.128C227.378 363.081 226.86 363.522 226.813 364.113C226.769 364.665 227.15 365.153 227.682 365.254L227.798 365.27L247.493 366.845C248.084 366.892 248.602 366.451 248.649 365.86C248.693 365.308 248.312 364.82 247.78 364.719L247.664 364.703L227.969 363.128Z" fill="#253368"/>
<path fill-rule="evenodd" clip-rule="evenodd" d="M193.87 361.284C192.093 358.885 188.976 357.868 186.388 360.013C182.215 363.468 183.622 378.583 193.365 380.518C197.164 380.503 196.642 365.026 193.87 361.284Z" fill="#FFC999"/>
<path d="M189.552 362.072C189.29 361.931 188.965 362.029 188.824 362.291C188.684 362.552 188.782 362.877 189.043 363.018L189.165 363.089C189.241 363.135 189.339 363.198 189.453 363.277C189.774 363.5 190.095 363.762 190.393 364.061C191.555 365.224 192.033 366.56 191.495 368.087C191.357 368.479 191.179 368.657 190.774 368.844L190.502 368.96C189.625 369.321 189.219 369.673 189.025 370.552C188.724 371.916 189.276 373.029 190.338 373.863C190.835 374.253 191.328 374.502 191.674 374.628C191.952 374.73 192.261 374.586 192.362 374.307C192.464 374.029 192.32 373.721 192.042 373.619L191.886 373.553C191.84 373.532 191.787 373.507 191.728 373.477C191.48 373.352 191.231 373.199 191.002 373.018C190.234 372.416 189.874 371.689 190.073 370.783C190.166 370.363 190.301 370.218 190.773 370.012L191.045 369.898C191.808 369.578 192.237 369.215 192.508 368.443C193.203 366.471 192.58 364.731 191.154 363.302C190.806 362.954 190.435 362.651 190.064 362.394C189.839 362.239 189.661 362.131 189.552 362.072Z" fill="#DD936F"/>
<path d="M234.506 368.308C232.441 368.114 230.637 369.826 230.425 372.082C230.386 372.494 230.689 372.86 231.101 372.899C231.514 372.938 231.879 372.635 231.918 372.222C232.057 370.75 233.174 369.689 234.365 369.801C235.556 369.913 236.456 371.164 236.318 372.637C236.28 373.05 236.583 373.415 236.995 373.454C237.408 373.492 237.773 373.189 237.812 372.777C238.022 370.521 236.569 368.502 234.506 368.308Z" fill="#253368"/>
<path d="M211.623 366.156C209.559 365.962 207.754 367.674 207.542 369.93C207.503 370.342 207.806 370.708 208.218 370.747C208.631 370.785 208.997 370.483 209.035 370.07C209.174 368.597 210.291 367.537 211.482 367.649C212.673 367.761 213.573 369.011 213.435 370.485C213.397 370.898 213.7 371.263 214.113 371.302C214.525 371.34 214.89 371.037 214.929 370.625C215.14 368.368 213.687 366.35 211.623 366.156Z" fill="#253368"/>
<path fill-rule="evenodd" clip-rule="evenodd" d="M155.911 542.424C155.911 542.424 155.784 505.173 153.655 488.384C151.246 469.362 140.883 432.545 147.702 429.639C154.521 426.732 183.859 415.25 183.859 415.25C183.859 415.25 196.821 416.82 211.39 420.023C222.924 422.558 221.371 415.29 235.359 417.696C241.282 418.715 269.473 427.454 271.006 432.975C281.314 470.09 249.591 543.914 249.591 543.914C249.591 543.914 254.161 555.347 248.205 562.065C244.852 565.5 245.323 563.942 226.876 563.867C205.878 563.783 162.046 562.421 158.883 561.273C148.702 557.58 155.911 542.424 155.911 542.424Z" fill="#597EF7"/>
<path fill-rule="evenodd" clip-rule="evenodd" d="M230.215 412.02L215.263 420.313L230.234 435.969L236.188 418.105L230.215 412.02Z" fill="#597EF7"/>
<path fill-rule="evenodd" clip-rule="evenodd" d="M215.609 420.683L202.243 439.151L182.924 416.147L191.621 405.789L215.609 420.683Z" fill="#597EF7"/>
<path d="M216.502 422.161C216.091 422.209 215.796 422.581 215.844 422.993L215.891 423.436L215.991 424.472L216.019 424.775C216.151 426.26 216.283 428.026 216.406 430.067L216.496 431.62C217.169 443.92 217.202 459.294 216.204 477.486C214.762 503.792 211.318 532.578 205.433 563.552C205.356 563.959 205.623 564.351 206.03 564.428C206.437 564.506 206.829 564.239 206.907 563.832C212.805 532.792 216.256 503.94 217.702 477.568L217.824 475.254C218.738 457.246 218.634 442.068 217.903 429.976L217.789 428.201C217.712 427.067 217.633 426.033 217.553 425.1L217.432 423.774L217.334 422.82C217.29 422.442 216.973 422.163 216.604 422.156L216.502 422.161Z" fill="#253368"/>
<path d="M172.041 457.766L188.409 458.412C192.591 458.573 196.964 458.738 201.477 458.905C201.895 458.92 202.22 459.275 202.198 459.692C201.91 465.338 201.449 470.129 200.862 474.126C200.523 476.434 200.161 478.351 199.796 479.904L199.711 480.256C199.596 480.73 199.486 481.14 199.386 481.489L199.218 482.036C199.199 482.094 199.183 482.14 199.17 482.174C199.119 482.314 199.028 482.436 198.907 482.524L184.903 492.71C184.636 492.904 184.273 492.901 184.01 492.702L170.84 482.762C170.646 482.615 170.535 482.384 170.542 482.14L171.261 458.493C171.273 458.076 171.624 457.749 172.041 457.766ZM172.737 459.296L172.053 481.797L184.47 491.17L197.83 481.452L197.89 481.258L198.003 480.866C198.082 480.584 198.166 480.263 198.254 479.9C198.636 478.334 199.019 476.348 199.378 473.908L199.464 473.309C199.945 469.897 200.335 465.913 200.607 461.318L200.66 460.375L188.351 459.911L172.737 459.296Z" fill="#253368"/>
<path fill-rule="evenodd" clip-rule="evenodd" d="M215.322 438.241C215.175 439.568 214.16 440.546 213.053 440.423C211.946 440.302 211.167 439.126 211.314 437.798C211.461 436.469 212.478 435.493 213.584 435.616C214.691 435.737 215.469 436.913 215.322 438.241Z" fill="white"/>
<path fill-rule="evenodd" clip-rule="evenodd" d="M214.728 465.336C214.581 466.663 213.566 467.641 212.459 467.518C211.352 467.397 210.573 466.221 210.722 464.892C210.867 463.564 211.884 462.588 212.99 462.709C214.097 462.832 214.875 464.008 214.728 465.336Z" fill="white"/>
<path fill-rule="evenodd" clip-rule="evenodd" d="M213.717 490.461C213.57 491.788 212.554 492.766 211.447 492.643C210.342 492.522 209.563 491.346 209.71 490.017C209.857 488.689 210.873 487.713 211.98 487.834C213.087 487.957 213.864 489.133 213.717 490.461Z" fill="white"/>
<path fill-rule="evenodd" clip-rule="evenodd" d="M211.431 517.686C211.284 519.014 210.269 519.992 209.162 519.869C208.056 519.747 207.278 518.571 207.425 517.244C207.572 515.915 208.587 514.938 209.694 515.061C210.801 515.183 211.578 516.359 211.431 517.686Z" fill="white"/>
<path fill-rule="evenodd" clip-rule="evenodd" d="M207.127 547.952C206.98 549.279 205.964 550.257 204.857 550.134C203.75 550.013 202.972 548.837 203.12 547.509C203.266 546.18 204.283 545.204 205.388 545.327C206.495 545.448 207.274 546.624 207.127 547.952Z" fill="white"/>
<path d="M183.771 414.887C183.516 414.56 183.045 414.502 182.718 414.756C182.421 414.988 182.346 415.398 182.526 415.716L182.587 415.809L198.594 436.347C198.841 436.664 199.289 436.725 199.611 436.504L199.695 436.436L215.904 421.444C216.208 421.163 216.226 420.688 215.945 420.384C215.689 420.107 215.274 420.067 214.972 420.273L214.885 420.343L199.275 434.78L183.771 414.887Z" fill="#253368"/>
<path d="M237.005 417.968C236.649 417.837 236.257 417.993 236.084 418.32L236.042 418.413L229.072 437.333L216.499 420.343C216.275 420.04 215.866 419.954 215.544 420.126L215.45 420.186C215.147 420.41 215.062 420.818 215.234 421.141L215.293 421.235L228.691 439.343C229.024 439.792 229.7 439.727 229.953 439.256L229.998 439.156L237.45 418.931C237.593 418.543 237.394 418.112 237.005 417.968Z" fill="#253368"/>
<path d="M262.66 458.169C262.248 458.123 261.878 458.421 261.833 458.832L261.317 463.487C257.235 499.963 254.012 518.623 246.279 545.376C246.23 545.545 246.242 545.725 246.313 545.886C249.537 553.215 249.092 558.076 246.493 561.058C246.049 561.568 245.574 561.974 245.102 562.287L244.885 562.424C244.819 562.464 244.759 562.498 244.707 562.526L244.627 562.568L243.692 562.627C239.009 562.91 233.944 563.084 228.551 563.159L227.301 563.174C216.301 563.293 204.555 563.007 192.863 562.45L190.671 562.342C187.579 562.186 184.686 562.02 182.041 561.853L179.597 561.694L176.66 561.485C176.248 561.453 175.887 561.762 175.855 562.175C175.823 562.588 176.132 562.948 176.545 562.98L179.075 563.162L180.385 563.249C183.446 563.451 186.877 563.652 190.595 563.84C203.037 564.469 215.596 564.8 227.317 564.674C233.622 564.606 239.498 564.405 244.864 564.057C244.947 564.051 245.028 564.032 245.105 564C245.764 563.723 246.699 563.104 247.624 562.043C250.523 558.718 251.093 553.503 248.04 546.112L247.795 545.532L248.425 543.331C255.916 516.945 259.042 497.887 263.194 460.18L263.324 458.996C263.369 458.584 263.071 458.214 262.66 458.169Z" fill="#253368"/>
<path fill-rule="evenodd" clip-rule="evenodd" d="M150.264 619.71L193.306 635.583C193.306 635.583 202.899 637.789 210.415 635.061C222.486 630.678 242.251 619.867 250.401 607.426C251.259 589.464 243.708 569.4 243.708 569.4L242.482 558.594C242.482 558.594 203.599 562.987 156.534 558.88C156.217 564.228 154.987 570.759 154.987 570.759C154.987 570.759 146.37 601.524 150.264 619.71Z" fill="#ADC6FF"/>
<path d="M242.299 569.48L242.212 569.488C235.886 570.573 229 571.327 221.639 571.779C205.723 572.754 188.673 572.29 172.147 570.922L170.367 570.771C168.03 570.567 165.84 570.356 163.816 570.142L162.33 569.982C161.312 569.87 160.416 569.766 159.648 569.673L158.714 569.556C158.419 569.517 158.15 569.724 158.111 570.018C158.072 570.312 158.279 570.582 158.573 570.62L159.518 570.739C160.29 570.833 161.191 570.937 162.213 571.05L163.704 571.21C166.241 571.478 169.039 571.743 172.059 571.993C188.632 573.364 205.73 573.83 221.704 572.851C229.102 572.397 236.027 571.639 242.394 570.547C242.686 570.497 242.882 570.219 242.832 569.927C242.787 569.664 242.558 569.478 242.299 569.48Z" fill="#597EF7"/>
<path d="M242.425 558.272C236.986 558.857 231.214 559.307 225.152 559.631C207.809 560.557 189.307 560.423 171.511 559.621L169.29 559.517C166.466 559.381 163.862 559.236 161.51 559.09L158.98 558.926L156.785 558.768C156.489 558.745 156.23 558.966 156.207 559.262C156.184 559.557 156.405 559.816 156.7 559.839L158.551 559.973L160.061 560.074C162.765 560.25 165.843 560.426 169.238 560.59C187.744 561.484 207.102 561.67 225.21 560.703C231.29 560.378 237.081 559.927 242.54 559.34C242.835 559.308 243.048 559.043 243.016 558.748C242.988 558.483 242.771 558.284 242.512 558.27L242.425 558.272Z" fill="#597EF7"/>
<path d="M202.658 560.988C202.362 560.99 202.122 561.231 202.124 561.528L202.125 565.378C202.119 568.323 202.098 571.813 202.055 575.707L202.039 577.098C201.934 585.749 201.741 594.315 201.441 602.391L201.37 604.245C200.906 615.947 200.239 625.75 199.339 633.029C199.303 633.323 199.512 633.591 199.806 633.628C200.101 633.664 200.369 633.455 200.405 633.161L200.546 631.985C201.356 625.006 201.968 615.92 202.406 605.21L202.443 604.288C202.76 596.279 202.969 587.752 203.087 579.108L203.144 574.36C203.177 571.007 203.194 567.981 203.199 565.38L203.198 561.523C203.196 561.226 202.955 560.987 202.658 560.988Z" fill="#597EF7"/>
<path fill-rule="evenodd" clip-rule="evenodd" d="M211.508 567.062C211.521 568.398 210.689 569.489 209.649 569.499C208.61 569.508 207.758 568.434 207.746 567.098C207.732 565.761 208.565 564.671 209.603 564.66C210.642 564.651 211.496 565.725 211.508 567.062Z" fill="white"/>
<path d="M213.967 572.676C213.671 572.687 213.439 572.936 213.45 573.232L213.512 575.338C213.523 575.761 213.534 576.21 213.544 576.683C213.692 583.475 213.685 590.75 213.419 597.571C213.282 601.067 213.081 604.283 212.808 607.157C212.179 613.802 208.3 617.371 201.796 618.214C201.502 618.252 201.294 618.522 201.332 618.816C201.371 619.11 201.64 619.317 201.934 619.279C208.912 618.375 213.198 614.431 213.878 607.258C214.152 604.363 214.355 601.128 214.492 597.613C214.733 591.451 214.762 584.926 214.658 578.717L214.607 576.193L214.553 574.114C214.539 573.667 214.529 573.356 214.523 573.193C214.512 572.897 214.263 572.665 213.967 572.676Z" fill="#597EF7"/>
<path d="M223.168 629.175C223.022 628.917 222.695 628.826 222.437 628.972L221.954 629.24L221.191 629.65C221.009 629.747 220.82 629.847 220.622 629.95C219.214 630.685 217.718 631.421 216.199 632.107C214.921 632.684 213.683 633.201 212.506 633.641C210.906 634.239 209.456 634.682 208.194 634.944C206.798 635.233 205.144 635.406 203.285 635.475C200.881 635.564 198.299 635.478 195.769 635.28L195.026 635.218C194.788 635.197 194.559 635.175 194.34 635.154L193.374 635.05C193.08 635.014 192.812 635.224 192.776 635.518C192.74 635.812 192.949 636.08 193.243 636.116L193.909 636.19L194.576 636.255C194.924 636.288 195.295 636.32 195.685 636.35C198.253 636.552 200.874 636.639 203.325 636.548C205.239 636.477 206.951 636.298 208.412 635.995C209.734 635.721 211.235 635.263 212.882 634.647C214.083 634.198 215.342 633.672 216.641 633.086C218.18 632.39 219.694 631.646 221.12 630.902L221.695 630.599L222.821 629.988C222.882 629.954 222.93 629.927 222.966 629.907C223.224 629.761 223.315 629.433 223.168 629.175Z" fill="#597EF7"/>
<path fill-rule="evenodd" clip-rule="evenodd" d="M134.785 561.292C124.816 559.224 118.195 549.73 119.698 539.659L133.321 448.437C135.323 435.021 148.192 426.046 161.476 428.803C174.601 431.527 182.83 444.619 179.591 457.629L157.316 547.132C154.825 557.136 144.878 563.388 134.785 561.292Z" fill="#FFC999"/>
<path fill-rule="evenodd" clip-rule="evenodd" d="M166.467 515.803L122.361 506.649L133.561 447.4C136.012 434.433 148.623 425.995 161.547 428.677C174.469 431.359 182.68 444.118 179.769 456.991L166.467 515.803Z" fill="#597EF7"/>
<path fill-rule="evenodd" clip-rule="evenodd" d="M229.47 555.185L291.501 555.589C293.241 555.601 294.788 554.485 295.328 552.83L316.895 486.629C317.732 484.058 315.825 481.414 313.121 481.396L251.09 480.992C249.348 480.982 247.802 482.096 247.263 483.751L225.696 549.952C224.859 552.524 226.766 555.167 229.47 555.185Z" fill="#4E5C93"/>
<path fill-rule="evenodd" clip-rule="evenodd" d="M233.975 555.213L296.006 555.616C297.746 555.628 299.292 554.512 299.831 552.858L321.398 486.657C322.236 484.086 320.33 481.441 317.625 481.423L255.593 481.02C253.853 481.009 252.306 482.124 251.768 483.778L230.201 549.979C229.364 552.552 231.269 555.195 233.975 555.213Z" fill="#253368"/>
<path fill-rule="evenodd" clip-rule="evenodd" d="M274.794 564.771C274.794 564.771 254.745 566.515 245.401 560.337C232.033 551.5 244.281 540.886 244.281 540.886C244.281 540.886 248.967 536.757 261.546 531.778C268.533 529.014 286.833 522.445 286.393 526.807C285.874 531.975 273.895 536.13 275.02 539.737C276.175 543.438 279.451 542.628 287.503 543.237C292.534 543.616 297.645 542.011 301.849 543.147C310.069 545.367 303.109 560.782 274.794 564.771Z" fill="#FFC999"/>
<path d="M301.645 547.125C301.535 546.853 301.226 546.722 300.955 546.832C293.747 549.742 287.111 550.154 281.618 549.117C281.166 549.032 280.758 548.941 280.397 548.851L280.135 548.782C279.885 548.715 279.718 548.664 279.638 548.637C279.361 548.542 279.059 548.69 278.965 548.967C278.87 549.244 279.017 549.545 279.295 549.64L279.459 549.693C279.562 549.724 279.695 549.763 279.859 549.807C280.307 549.927 280.829 550.047 281.421 550.159C287.102 551.232 293.942 550.807 301.352 547.815C301.623 547.705 301.755 547.396 301.645 547.125Z" fill="#DD936F"/>
<path d="M299.841 553.294C299.713 553.031 299.395 552.922 299.132 553.05L298.861 553.174L298.486 553.337C298.352 553.394 298.207 553.453 298.053 553.515C297.17 553.87 296.162 554.225 295.046 554.556C290.631 555.869 285.925 556.436 281.251 555.839C280.961 555.801 280.695 556.007 280.658 556.297C280.621 556.588 280.826 556.853 281.117 556.89C285.953 557.509 290.802 556.924 295.349 555.573C296.497 555.231 297.536 554.866 298.448 554.499L298.9 554.313L299.293 554.143C299.44 554.077 299.542 554.03 299.596 554.003C299.86 553.875 299.969 553.558 299.841 553.294Z" fill="#DD936F"/>
<path d="M291.68 559.283L291.585 559.299C285.601 560.865 280.384 561.03 276.214 560.374C275.829 560.314 275.484 560.25 275.181 560.186L274.744 560.086C274.653 560.064 274.587 560.046 274.548 560.035C274.267 559.952 273.972 560.114 273.89 560.395C273.808 560.676 273.969 560.97 274.25 561.053L274.484 561.114C274.553 561.131 274.634 561.151 274.725 561.171C275.102 561.257 275.544 561.342 276.049 561.422C280.357 562.099 285.721 561.93 291.854 560.325C292.137 560.25 292.307 559.961 292.233 559.677C292.167 559.425 291.93 559.264 291.68 559.283Z" fill="#DD936F"/>
<path fill-rule="evenodd" clip-rule="evenodd" d="M271.863 552.144C271.355 558.444 266.049 563.271 259.728 563.181L139.425 561.47C128.136 561.309 119.328 551.648 120.209 540.392C121.089 529.155 131.262 520.988 142.422 522.557L261.569 539.294C267.861 540.177 272.373 545.811 271.863 552.144Z" fill="#FFC999"/>
<path d="M177.223 456.121C176.849 456.054 176.49 456.276 176.376 456.628L176.352 456.726L165.866 514.91L122.513 505.913C122.141 505.836 121.777 506.049 121.654 506.397L121.626 506.495C121.549 506.867 121.762 507.231 122.11 507.354L122.208 507.382L166.314 516.536C166.693 516.615 167.063 516.393 167.179 516.036L167.205 515.935L177.828 456.993C177.901 456.585 177.63 456.195 177.223 456.121Z" fill="#253368"/>
<path d="M171.151 438.963C166.377 432.598 160.248 429.023 152.689 429.77C152.277 429.81 151.975 430.177 152.016 430.59C152.057 431.002 152.424 431.303 152.836 431.262C159.798 430.575 165.463 433.879 169.951 439.863C171.394 441.786 172.605 443.851 173.589 445.916C173.865 446.493 174.107 447.038 174.315 447.539L174.465 447.907C174.607 448.264 174.699 448.515 174.743 448.644C174.876 449.036 175.303 449.245 175.695 449.112C176.087 448.978 176.296 448.552 176.163 448.16L176.025 447.782C175.979 447.659 175.923 447.515 175.858 447.351C175.607 446.722 175.302 446.023 174.943 445.27C173.918 443.121 172.658 440.972 171.151 438.963Z" fill="#253368"/>
<path fill-rule="evenodd" clip-rule="evenodd" d="M320.754 453.008C320.754 453.008 320.814 444.85 323.91 440.788C328.332 434.987 332.631 429.514 332.691 421.396C332.751 413.278 340.584 420.088 336.148 435.398C347.865 432.76 360.169 427.813 363.85 419.884C365.196 416.987 368.349 417.458 368.424 420.248C368.5 423.04 367.24 425.654 367.24 425.654C367.24 425.654 369.513 427.922 367.963 431.071C370.98 435.824 366 438.841 366 438.841C366 438.841 369.039 440.549 362.884 447.619C356.506 454.943 340.621 461.735 340.621 461.735L328.147 486.32L307.3 475.597L320.754 453.008Z" fill="#FFC999"/>
<path d="M336.588 435.194C336.475 434.952 336.188 434.847 335.946 434.959C335.704 435.071 335.599 435.358 335.711 435.6L335.843 435.907C335.872 435.977 335.904 436.056 335.939 436.143C336.113 436.585 336.288 437.08 336.451 437.617C336.972 439.328 337.256 441.047 337.183 442.638C337.09 444.64 336.434 446.271 335.105 447.434C334.905 447.61 334.884 447.915 335.06 448.116C335.236 448.317 335.541 448.337 335.742 448.161C337.288 446.807 338.044 444.928 338.148 442.682C338.227 440.967 337.925 439.143 337.375 437.335C337.204 436.773 337.021 436.254 336.837 435.789L336.735 435.534C336.672 435.383 336.622 435.268 336.588 435.194Z" fill="#DD936F"/>
<path d="M363.596 435.222C362.701 434.493 361.881 434.231 361.187 434.687C360.373 435.22 360.165 436.415 360.322 438.094C360.377 438.684 360.477 439.309 360.61 439.946C360.658 440.178 360.709 440.402 360.76 440.615L360.865 441.029L360.882 441.089L360.824 441.169C360.709 441.327 360.578 441.5 360.433 441.683L360.283 441.87C359.692 442.598 359.014 443.327 358.261 444.006C356.119 445.936 353.814 447.08 351.447 447.067C343.636 447.022 336.005 448.893 334.561 452.342C334.458 452.588 334.574 452.871 334.82 452.974C335.066 453.077 335.349 452.961 335.452 452.715C336.675 449.796 344.038 447.99 351.441 448.033C354.09 448.048 356.604 446.8 358.908 444.723C359.701 444.009 360.413 443.244 361.033 442.479C361.251 442.211 361.442 441.961 361.605 441.737L361.809 441.446C361.888 441.327 361.91 441.18 361.87 441.044L361.773 440.685C361.699 440.397 361.625 440.082 361.556 439.749C361.43 439.145 361.335 438.554 361.284 438.004C361.159 436.669 361.318 435.756 361.717 435.494C361.95 435.341 362.383 435.48 362.985 435.971C363.364 436.28 363.773 436.701 364.198 437.205C364.545 437.619 364.883 438.063 365.196 438.508L365.366 438.754C365.468 438.902 365.545 439.02 365.594 439.097C365.736 439.322 366.035 439.388 366.26 439.246C366.485 439.103 366.552 438.804 366.409 438.579L366.241 438.323C366.17 438.217 366.084 438.092 365.986 437.952C365.658 437.486 365.304 437.02 364.937 436.583C364.477 436.037 364.028 435.574 363.596 435.222Z" fill="#DD936F"/>
<path d="M365.269 427.444C364.073 426.565 362.99 426.412 362.264 427.365C361.643 428.18 361.589 429.33 361.946 430.718C362.121 431.398 362.39 432.114 362.728 432.845C362.943 433.311 363.174 433.755 363.404 434.163L363.619 434.532C363.658 434.597 363.69 434.65 363.716 434.69C363.859 434.916 364.157 434.982 364.383 434.839C364.608 434.696 364.675 434.398 364.532 434.173L364.386 433.933C364.345 433.862 364.297 433.78 364.245 433.688C364.027 433.301 363.809 432.88 363.605 432.44C363.29 431.758 363.04 431.094 362.881 430.477C362.591 429.347 362.631 428.476 363.032 427.95C363.345 427.54 363.87 427.615 364.698 428.222C365.119 428.532 365.574 428.957 366.045 429.467C366.424 429.878 366.792 430.32 367.133 430.763L367.463 431.204C367.505 431.261 367.539 431.309 367.566 431.347C367.718 431.566 368.019 431.62 368.238 431.468C368.457 431.316 368.511 431.015 368.359 430.796L368.093 430.43C368.035 430.352 367.97 430.266 367.898 430.173C367.541 429.71 367.155 429.246 366.755 428.812C366.245 428.26 365.747 427.795 365.269 427.444Z" fill="#DD936F"/>
<path d="M360.772 437.977C360.579 437.793 360.273 437.8 360.089 437.994C357.844 440.351 355.768 441.741 352.457 443.089C352.21 443.189 352.091 443.471 352.192 443.718C352.292 443.965 352.574 444.084 352.821 443.984C356.257 442.585 358.447 441.119 360.789 438.66C360.973 438.467 360.965 438.161 360.772 437.977Z" fill="#DD936F"/>
<path d="M362.698 433.335C362.537 433.123 362.234 433.082 362.021 433.243L361.773 433.426L361.678 433.494C361.393 433.697 361.064 433.924 360.694 434.168C359.636 434.868 358.467 435.567 357.22 436.22C355.306 437.222 353.388 438.019 351.524 438.537C351.267 438.608 351.117 438.874 351.188 439.131C351.259 439.388 351.525 439.539 351.783 439.467C353.719 438.93 355.698 438.107 357.668 437.076C358.946 436.407 360.143 435.691 361.227 434.974L361.766 434.612L362.5 434.091C362.544 434.059 362.58 434.032 362.606 434.012C362.819 433.85 362.86 433.547 362.698 433.335Z" fill="#DD936F"/>
<path d="M362.321 428.437C362.157 428.226 361.854 428.188 361.643 428.351L361.221 428.667L360.779 428.986C360.546 429.151 360.294 429.327 360.025 429.51C358.746 430.384 357.345 431.259 355.869 432.074C354.049 433.08 352.243 433.924 350.494 434.555C350.243 434.645 350.113 434.922 350.203 435.173C350.293 435.424 350.57 435.554 350.821 435.463C352.623 434.814 354.474 433.948 356.336 432.92C357.84 432.088 359.267 431.198 360.57 430.308L361.095 429.945C361.262 429.828 361.421 429.715 361.572 429.606L362.106 429.213C362.16 429.172 362.203 429.139 362.235 429.115C362.445 428.952 362.484 428.648 362.321 428.437Z" fill="#DD936F"/>
<path d="M348.896 432.797C348.648 432.896 348.528 433.177 348.628 433.425L348.906 434.149C348.96 434.294 349.017 434.449 349.076 434.611C349.414 435.54 349.752 436.538 350.067 437.567C350.429 438.749 350.737 439.894 350.975 440.975C351.635 443.975 351.694 446.217 351.03 447.299C350.89 447.527 350.961 447.824 351.189 447.963C351.416 448.103 351.714 448.032 351.853 447.805C352.695 446.433 352.631 444.007 351.918 440.767C351.674 439.659 351.36 438.489 350.991 437.285C350.734 436.448 350.463 435.631 350.19 434.855L349.895 434.039L349.524 433.065C349.425 432.817 349.144 432.697 348.896 432.797Z" fill="#DD936F"/>
<path d="M365.588 422.578C364.97 421.996 364.389 421.733 363.827 421.978C362.903 422.382 362.448 423.253 362.349 424.398C362.298 424.982 362.343 425.598 362.448 426.199C362.493 426.456 362.539 426.654 362.571 426.771C362.641 427.028 362.907 427.18 363.164 427.109C363.422 427.039 363.573 426.773 363.502 426.516L363.467 426.372C363.447 426.283 363.423 426.168 363.4 426.032C363.308 425.507 363.269 424.971 363.311 424.481C363.383 423.653 363.672 423.1 364.214 422.864C364.306 422.823 364.563 422.939 364.925 423.281C365.195 423.536 365.489 423.884 365.794 424.3C366.049 424.646 366.296 425.02 366.526 425.394L366.779 425.821C366.794 425.846 366.806 425.868 366.817 425.887C366.947 426.121 367.24 426.205 367.474 426.076C367.707 425.946 367.791 425.652 367.662 425.419L367.505 425.146C367.459 425.07 367.407 424.983 367.349 424.888C367.106 424.493 366.845 424.099 366.573 423.728C366.236 423.269 365.907 422.879 365.588 422.578Z" fill="#DD936F"/>
<path fill-rule="evenodd" clip-rule="evenodd" d="M314.308 631.682C313.795 620.785 306.052 611.581 295.404 609.209L187.81 585.253C171.997 579.721 154.758 588.461 149.871 604.486C144.987 620.512 154.419 637.382 170.628 641.614L287.017 656.804C301.951 658.753 315.016 646.727 314.308 631.682Z" fill="#ADC6FF"/>
<path fill-rule="evenodd" clip-rule="evenodd" d="M285.429 797.878L267.577 635.899C266.089 622.391 276.136 610.355 289.693 609.407C303.1 608.469 314.65 618.755 315.267 632.18L322.75 795.268C322.75 795.268 306.55 804.31 285.429 797.878Z" fill="#ADC6FF"/>
<path d="M206.066 590.565C206.011 590.857 206.202 591.138 206.493 591.194L215.834 592.996C217.655 593.35 219.559 593.722 221.533 594.109L228.295 595.442C235.795 596.927 243.228 598.423 250.371 599.891L254.621 600.768C256.538 601.166 258.416 601.558 260.25 601.943L265.229 602.997C281.982 606.569 293.872 609.379 299.343 611.152C307.813 613.898 313.274 621.578 314.601 632.488C314.78 633.965 314.94 635.541 315.082 637.203C315.372 640.6 315.575 644.214 315.705 647.853L315.75 649.218C315.795 650.652 315.825 651.983 315.843 653.178L315.86 654.677C315.861 654.974 316.102 655.214 316.399 655.213C316.695 655.211 316.934 654.97 316.934 654.674L316.917 653.162L316.887 651.546C316.87 650.797 316.849 650.007 316.824 649.185C316.697 645.07 316.48 640.955 316.152 637.112C316.01 635.437 315.848 633.848 315.667 632.358C314.292 621.059 308.573 613.015 299.674 610.131L299.192 609.977C293.067 608.053 280.047 605.023 261.84 601.181L257.686 600.309L254.839 599.716C246.413 597.969 237.507 596.171 228.504 594.388L221.74 593.055C218.448 592.41 215.353 591.807 212.508 591.257L206.694 590.138C206.403 590.083 206.122 590.274 206.066 590.565Z" fill="#597EF7"/>
</svg>
