<svg width="557" height="1024" viewBox="0 0 557 1024" fill="none" xmlns="http://www.w3.org/2000/svg">
<path fill-rule="evenodd" clip-rule="evenodd" d="M367.632 729.561C367.632 738.735 360.195 746.171 351.023 746.171C341.851 746.171 334.414 738.735 334.414 729.561C334.414 720.389 341.851 712.953 351.023 712.953C360.195 712.953 367.632 720.389 367.632 729.561Z" fill="#253368"/>
<path fill-rule="evenodd" clip-rule="evenodd" d="M347.906 879.036H354.335V734.52H347.906V879.036Z" fill="#253368"/>
<path fill-rule="evenodd" clip-rule="evenodd" d="M347.906 879.039L273.028 891.511L268.195 888.021L347.906 864.543V879.039Z" fill="#253368"/>
<path fill-rule="evenodd" clip-rule="evenodd" d="M354.336 879.039L429.214 891.511L434.046 888.021L354.336 864.543V879.039Z" fill="#253368"/>
<path fill-rule="evenodd" clip-rule="evenodd" d="M346.02 895.807H356.22V874.867H346.02V895.807Z" fill="#253368"/>
<path fill-rule="evenodd" clip-rule="evenodd" d="M280.046 896.083C280.046 900.864 276.169 904.74 271.388 904.74C266.607 904.74 262.73 900.864 262.73 896.083C262.73 891.301 266.607 887.426 271.388 887.426C276.169 887.426 280.046 891.301 280.046 896.083Z" fill="#253368"/>
<path fill-rule="evenodd" clip-rule="evenodd" d="M359.78 896.083C359.78 900.864 355.904 904.74 351.122 904.74C346.341 904.74 342.465 900.864 342.465 896.083C342.465 891.301 346.341 887.426 351.122 887.426C355.904 887.426 359.78 891.301 359.78 896.083Z" fill="#253368"/>
<path fill-rule="evenodd" clip-rule="evenodd" d="M440.272 896.083C440.272 900.864 436.396 904.74 431.614 904.74C426.833 904.74 422.957 900.864 422.957 896.083C422.957 891.301 426.833 887.426 431.614 887.426C436.396 887.426 440.272 891.301 440.272 896.083Z" fill="#253368"/>
<path fill-rule="evenodd" clip-rule="evenodd" d="M455.133 726.511H246.918C246.918 706.046 263.507 689.457 283.972 689.457H418.078C438.542 689.457 455.133 706.046 455.133 726.511Z" fill="#A3B5D6"/>
<path d="M243.4 293.957H211.266C210.165 293.957 209.273 294.849 209.273 295.95V300.877C209.273 301.978 210.165 302.87 211.266 302.87H243.4C244.5 302.87 245.392 301.978 245.392 300.877V295.95C245.392 294.849 244.5 293.957 243.4 293.957Z" fill="#597EF7"/>
<path d="M243.43 310.922H211.236C210.152 310.922 209.273 311.8 209.273 312.884V317.603C209.273 318.686 210.152 319.565 211.236 319.565H243.43C244.514 319.565 245.392 318.686 245.392 317.603V312.884C245.392 311.8 244.514 310.922 243.43 310.922Z" fill="#ADC6FF"/>
<path d="M243.43 327.887H211.236C210.152 327.887 209.273 328.765 209.273 329.849V334.567C209.273 335.651 210.152 336.53 211.236 336.53H243.43C244.514 336.53 245.392 335.651 245.392 334.567V329.849C245.392 328.765 244.514 327.887 243.43 327.887Z" fill="#FF7946"/>
<path d="M243.43 344.852H211.236C210.152 344.852 209.273 345.73 209.273 346.814V351.532C209.273 352.616 210.152 353.495 211.236 353.495H243.43C244.514 353.495 245.392 352.616 245.392 351.532V346.814C245.392 345.73 244.514 344.852 243.43 344.852Z" fill="#ADC6FF"/>
<path d="M462.782 180.426H180.218C175.364 180.426 171.43 184.36 171.43 189.214V392.131C171.43 396.984 175.364 400.919 180.218 400.919H462.782C467.636 400.919 471.57 396.984 471.57 392.131V189.214C471.57 184.36 467.636 180.426 462.782 180.426Z" fill="#E4EBF7"/>
<path d="M443.435 219.574H272.641C270.796 219.574 269.301 221.07 269.301 222.915V378.048C269.301 379.893 270.796 381.389 272.641 381.389H443.435C445.28 381.389 446.775 379.893 446.775 378.048V222.915C446.775 221.07 445.28 219.574 443.435 219.574Z" fill="#597EF7"/>
<path d="M416.76 269.164H291.484V276.994H416.76V269.164Z" fill="white"/>
<path d="M354.122 296.566H291.484V304.396H354.122V296.566Z" fill="#FAAD14"/>
<path d="M407.626 241.758H344.988V249.588H407.626V241.758Z" fill="#FAAD14"/>
<path d="M406.321 350.07H291.484V357.9H406.321V350.07Z" fill="white"/>
<path d="M329.328 241.758H291.484V249.588H329.328V241.758Z" fill="white"/>
<path d="M385.441 296.566H367.172V304.396H385.441V296.566Z" fill="#E4EBF7"/>
<path d="M384.136 322.664H291.484V330.494H384.136V322.664Z" fill="#E4EBF7"/>
<path d="M179.469 169.984H463.38C467.82 169.984 471.42 173.509 471.42 177.857V201.317H171.43V177.857C171.43 173.509 175.029 169.984 179.469 169.984Z" fill="#253368"/>
<path d="M188.914 191.664C192.083 191.664 194.652 189.148 194.652 186.045C194.652 182.941 192.083 180.426 188.914 180.426C185.745 180.426 183.176 182.941 183.176 186.045C183.176 189.148 185.745 191.664 188.914 191.664Z" fill="#FF7946"/>
<path d="M211.098 191.664C214.267 191.664 216.836 189.148 216.836 186.045C216.836 182.941 214.267 180.426 211.098 180.426C207.928 180.426 205.359 182.941 205.359 186.045C205.359 189.148 207.928 191.664 211.098 191.664Z" fill="#FAAD14"/>
<path d="M231.976 191.664C235.146 191.664 237.715 189.148 237.715 186.045C237.715 182.941 235.146 180.426 231.976 180.426C228.807 180.426 226.238 182.941 226.238 186.045C226.238 189.148 228.807 191.664 231.976 191.664Z" fill="#7CB305"/>
<path d="M256.658 216.965H198.426C196.488 216.965 194.918 218.535 194.918 220.473V377.882C194.918 379.819 196.488 381.39 198.426 381.39H256.658C258.595 381.39 260.166 379.819 260.166 377.882V220.473C260.166 218.535 258.595 216.965 256.658 216.965Z" fill="white"/>
<path d="M243.4 293.957H211.266C210.165 293.957 209.273 294.849 209.273 295.95V300.877C209.273 301.978 210.165 302.87 211.266 302.87H243.4C244.5 302.87 245.392 301.978 245.392 300.877V295.95C245.392 294.849 244.5 293.957 243.4 293.957Z" fill="#597EF7"/>
<path d="M243.43 310.922H211.236C210.152 310.922 209.273 311.8 209.273 312.884V317.603C209.273 318.686 210.152 319.565 211.236 319.565H243.43C244.514 319.565 245.392 318.686 245.392 317.603V312.884C245.392 311.8 244.514 310.922 243.43 310.922Z" fill="#ADC6FF"/>
<path d="M243.43 327.887H211.236C210.152 327.887 209.273 328.765 209.273 329.849V334.567C209.273 335.651 210.152 336.53 211.236 336.53H243.43C244.514 336.53 245.392 335.651 245.392 334.567V329.849C245.392 328.765 244.514 327.887 243.43 327.887Z" fill="#FF7946"/>
<path d="M243.43 344.852H211.236C210.152 344.852 209.273 345.73 209.273 346.814V351.532C209.273 352.616 210.152 353.495 211.236 353.495H243.43C244.514 353.495 245.392 352.616 245.392 351.532V346.814C245.392 345.73 244.514 344.852 243.43 344.852Z" fill="#ADC6FF"/>
<path d="M226.884 270.537C235.795 270.537 243.018 263.232 243.018 254.22C243.018 245.208 235.795 237.902 226.884 237.902C217.974 237.902 210.75 245.208 210.75 254.22C210.75 263.232 217.974 270.537 226.884 270.537Z" fill="#FAAD14"/>
<path d="M226.885 270.539C231.535 270.542 235.948 268.464 238.94 264.863C236.582 260.337 231.94 257.504 226.882 257.504C221.824 257.504 217.182 260.337 214.824 264.863C217.818 268.465 222.233 270.542 226.885 270.539Z" fill="#253368"/>
<path d="M226.97 258.153C230.322 258.153 233.038 255.405 233.038 252.016C233.038 248.627 230.322 245.879 226.97 245.879C223.619 245.879 220.902 248.627 220.902 252.016C220.902 255.405 223.619 258.153 226.97 258.153Z" fill="#253368"/>
<path fill-rule="evenodd" clip-rule="evenodd" d="M314.391 310.865H83.5156V291.212C83.5156 286.949 87.154 283.492 91.6415 283.492H306.265C310.753 283.492 314.391 286.949 314.391 291.212V310.865Z" fill="#253368"/>
<path fill-rule="evenodd" clip-rule="evenodd" d="M306.265 510.213H91.6415C87.154 510.213 83.5156 506.597 83.5156 502.136V309.832H314.391V502.136C314.391 506.597 310.753 510.213 306.265 510.213Z" fill="#E4EBF7"/>
<path fill-rule="evenodd" clip-rule="evenodd" d="M102.457 297.102C102.457 299.874 100.196 302.121 97.4061 302.121C94.6167 302.121 92.3555 299.874 92.3555 297.102C92.3555 294.33 94.6167 292.082 97.4061 292.082C100.196 292.082 102.457 294.33 102.457 297.102Z" fill="#FF7946"/>
<path fill-rule="evenodd" clip-rule="evenodd" d="M120.133 297.102C120.133 299.874 117.872 302.121 115.082 302.121C112.293 302.121 110.031 299.874 110.031 297.102C110.031 294.33 112.293 292.082 115.082 292.082C117.872 292.082 120.133 294.33 120.133 297.102Z" fill="#FAAD14"/>
<path fill-rule="evenodd" clip-rule="evenodd" d="M140.34 297.102C140.34 299.874 138.079 302.121 135.289 302.121C132.5 302.121 130.238 299.874 130.238 297.102C130.238 294.33 132.5 292.082 135.289 292.082C138.079 292.082 140.34 294.33 140.34 297.102Z" fill="#7CB305"/>
<path fill-rule="evenodd" clip-rule="evenodd" d="M108.776 484.085C107.379 484.085 106.246 482.951 106.246 481.553V334.77C106.246 333.372 107.379 332.238 108.776 332.238H291.864C293.261 332.238 294.394 333.372 294.394 334.77V481.553C294.394 482.951 293.261 484.085 291.864 484.085H108.776Z" fill="white"/>
<path fill-rule="evenodd" clip-rule="evenodd" d="M214.557 421.94V461.9C214.557 464.156 212.702 466.004 210.433 466.004H133.157C130.889 466.004 129.031 464.156 129.031 461.9V421.94C129.031 419.682 130.889 417.836 133.157 417.836H210.433C212.702 417.836 214.557 419.682 214.557 421.94Z" fill="#FAAD14"/>
<path fill-rule="evenodd" clip-rule="evenodd" d="M273.218 397.38C273.218 399.637 271.363 401.484 269.094 401.484H133.157C130.889 401.484 129.031 399.637 129.031 397.38V357.419C129.031 355.162 130.889 353.316 133.157 353.316H269.094C271.363 353.316 273.218 355.162 273.218 357.419V397.38Z" fill="#597EF7"/>
<path fill-rule="evenodd" clip-rule="evenodd" d="M273.119 461.9C273.119 464.156 271.263 466.004 268.995 466.004H233.862C231.594 466.004 229.738 464.156 229.738 461.9V421.94C229.738 419.682 231.594 417.836 233.862 417.836H268.995C271.263 417.836 273.119 419.682 273.119 421.94V461.9Z" fill="#FF7946"/>
<path fill-rule="evenodd" clip-rule="evenodd" d="M526.101 342.259H279.98V320.205C279.98 315.422 283.859 311.543 288.643 311.543H517.438C522.223 311.543 526.101 315.422 526.101 320.205V342.259Z" fill="#253368"/>
<path fill-rule="evenodd" clip-rule="evenodd" d="M517.438 554.598H288.643C283.859 554.598 279.98 550.72 279.98 545.935V339.676H526.101V545.935C526.101 550.72 522.223 554.598 517.438 554.598Z" fill="#E4EBF7"/>
<path fill-rule="evenodd" clip-rule="evenodd" d="M299.982 325.839C299.982 328.841 297.548 331.275 294.545 331.275C291.543 331.275 289.109 328.841 289.109 325.839C289.109 322.837 291.543 320.402 294.545 320.402C297.548 320.402 299.982 322.837 299.982 325.839Z" fill="#FF7946"/>
<path fill-rule="evenodd" clip-rule="evenodd" d="M320.283 325.839C320.283 328.841 317.849 331.275 314.846 331.275C311.844 331.275 309.41 328.841 309.41 325.839C309.41 322.837 311.844 320.402 314.846 320.402C317.849 320.402 320.283 322.837 320.283 325.839Z" fill="#FAAD14"/>
<path fill-rule="evenodd" clip-rule="evenodd" d="M340.587 325.839C340.587 328.841 338.154 331.275 335.151 331.275C332.149 331.275 329.715 328.841 329.715 325.839C329.715 322.837 332.149 320.402 335.151 320.402C338.154 320.402 340.587 322.837 340.587 325.839Z" fill="#7CB305"/>
<path fill-rule="evenodd" clip-rule="evenodd" d="M486.206 502.163H318.657C317.062 502.163 315.77 500.87 315.77 499.276V366.391C315.77 364.796 317.062 363.504 318.657 363.504H486.206C487.801 363.504 489.093 364.796 489.093 366.391V499.276C489.093 500.87 487.801 502.163 486.206 502.163Z" fill="white"/>
<path fill-rule="evenodd" clip-rule="evenodd" d="M474.074 490.031H330.79C329.195 490.031 327.902 488.738 327.902 487.143V378.524C327.902 376.93 329.195 375.637 330.79 375.637H474.074C475.669 375.637 476.961 376.93 476.961 378.524V487.143C476.961 488.738 475.669 490.031 474.074 490.031Z" fill="#E4EBF7"/>
<path fill-rule="evenodd" clip-rule="evenodd" d="M370.215 490.018H477.923L434.471 435.307C430.436 430.226 422.784 430.04 418.507 434.92L370.215 490.018Z" fill="#1D39C4"/>
<path fill-rule="evenodd" clip-rule="evenodd" d="M329.789 489.891H424.138L383.914 446.606C379.753 442.127 372.645 442.187 368.56 446.735L329.789 489.891Z" fill="#597EF7"/>
<path fill-rule="evenodd" clip-rule="evenodd" d="M401.95 408.195C401.95 420.447 392.018 430.379 379.766 430.379C367.514 430.379 357.582 420.447 357.582 408.195C357.582 395.944 367.514 386.012 379.766 386.012C392.018 386.012 401.95 395.944 401.95 408.195Z" fill="#FF7946"/>
<path d="M487.94 517.801C488.438 517.801 488.842 518.205 488.842 518.703C488.842 519.184 488.467 519.576 487.993 519.604L487.94 519.605H316.16C315.662 519.605 315.258 519.201 315.258 518.703C315.258 518.223 315.633 517.83 316.107 517.802L316.16 517.801H487.94Z" fill="#597EF7"/>
<path d="M404.002 530.707C404.501 530.707 404.905 531.111 404.905 531.609C404.905 532.09 404.529 532.483 404.055 532.51L404.002 532.512H316.16C315.662 532.512 315.258 532.108 315.258 531.609C315.258 531.129 315.633 530.736 316.107 530.709L316.16 530.707H404.002Z" fill="#597EF7"/>
<path fill-rule="evenodd" clip-rule="evenodd" d="M185.745 641.645C187.473 646.322 192.12 649.262 197.086 648.819L297.747 639.872C308.908 638.88 316.854 628.583 314.98 617.534C313.105 606.465 302.178 599.358 291.3 602.133L193.377 627.11C187.024 628.73 183.471 635.495 185.745 641.645Z" fill="#FFC999"/>
<path fill-rule="evenodd" clip-rule="evenodd" d="M140.223 829.437C140.223 829.437 123.968 843.344 99.9737 834.633C90.9482 831.357 82.5572 837.468 87.4367 845.816C91.0517 851.999 99.5417 857.691 111.255 861.981C126.947 867.728 128.241 858.71 136.047 863.418C140.573 866.147 151.076 869.319 153.59 866.168C157.982 860.66 158.759 857.037 163.025 850.055C183.798 816.054 176.288 801.374 140.223 829.437Z" fill="#253368"/>
<path fill-rule="evenodd" clip-rule="evenodd" d="M223.985 829.166C223.985 829.166 219.896 843.329 201.009 858.308C188.621 868.133 201.791 878.543 227.958 867.015C242.877 860.442 237.176 854.244 245.948 852.077C251.031 850.82 260.523 846.02 259.94 842.541C258.918 836.46 256.803 833.805 254.619 826.926C243.98 793.431 228.131 789.465 223.985 829.166Z" fill="#253368"/>
<path fill-rule="evenodd" clip-rule="evenodd" d="M255.169 820.952L238.762 673.819C237.434 661.904 224.848 653.444 211.301 655.361C198.223 657.212 189.404 668.035 191.699 679.42L221.108 825.236C221.108 825.236 235.886 830.33 255.169 820.952Z" fill="#4E5C93"/>
<path fill-rule="evenodd" clip-rule="evenodd" d="M408.925 640.273C408.925 640.273 324.955 646.617 319.25 638.352C316.739 634.714 314.938 652.887 310.336 682.873C317.753 696.586 331.957 707.598 350.555 707.08C380.963 706.236 408.662 702.807 411.794 682.452C414.047 667.81 412.172 652.149 408.925 640.273Z" fill="#ADC6FF"/>
<path fill-rule="evenodd" clip-rule="evenodd" d="M317.961 630.691L317.133 640.794C317.133 640.794 325.224 642.195 353.496 643.641C382.179 645.108 408.849 641.796 408.849 641.796L408.976 632.601C408.976 632.601 351.261 634.305 317.961 630.691Z" fill="#ADC6FF"/>
<path fill-rule="evenodd" clip-rule="evenodd" d="M215.169 684.733C215.695 697.678 226.36 707.893 239.317 707.857L383.76 707.46C400.525 707.413 413.899 693.448 413.22 676.693C412.539 659.94 398.077 647.103 381.361 648.417L237.363 659.728C224.448 660.742 214.642 671.788 215.169 684.733Z" fill="#ADC6FF"/>
<path fill-rule="evenodd" clip-rule="evenodd" d="M170.039 841.096L259.039 696.892C266.248 685.214 262.094 669.877 249.982 663.428C238.285 657.203 223.756 661.744 217.687 673.523L139.949 824.393C139.949 824.393 148.181 837.986 170.039 841.096Z" fill="#ADC6FF"/>
<path fill-rule="evenodd" clip-rule="evenodd" d="M293.52 635.272C303.607 636.67 313.03 629.951 314.994 619.961L332.796 529.46C335.413 516.151 326.304 503.377 312.867 501.512C299.589 499.672 287.442 509.24 286.123 522.581L277.051 614.368C276.039 624.628 283.308 633.856 293.52 635.272Z" fill="#FFC999"/>
<path fill-rule="evenodd" clip-rule="evenodd" d="M277.078 580.862L321.724 586.865L330.82 527.256C332.811 514.209 323.716 502.065 310.635 500.307C297.555 498.548 285.574 507.858 284.049 520.968L277.078 580.862Z" fill="#597EF7"/>
<path fill-rule="evenodd" clip-rule="evenodd" d="M335.008 484.487L333.289 445.523L368.338 443.684L374.215 480.506C375.99 491.628 368.112 501.978 356.92 503.231C345.568 504.501 335.512 495.899 335.008 484.487Z" fill="#FFC999"/>
<path fill-rule="evenodd" clip-rule="evenodd" d="M323.781 443.62C323.781 443.62 317.889 438.643 316.023 442.585C314.156 446.526 319.433 459.403 325.247 459.162C333.008 458.838 323.781 443.62 323.781 443.62Z" fill="#FFC999"/>
<path fill-rule="evenodd" clip-rule="evenodd" d="M360.852 474.219C360.852 474.219 350.455 484.652 334.509 476.969C323.028 471.44 319.267 447.596 319.572 429.786C319.744 419.708 323.794 413.886 333.205 409.958C342.619 406.031 368.938 403.272 372.066 432.563C375.547 465.186 360.852 474.219 360.852 474.219Z" fill="#FFC999"/>
<path d="M336.889 432.716C337.137 432.626 337.408 432.73 337.536 432.95L337.577 433.037L339.772 439.075C339.79 439.125 339.8 439.177 339.803 439.23L339.801 439.309L338.23 455.705L344.613 455.116C344.879 455.091 345.117 455.265 345.182 455.515L345.197 455.601C345.222 455.867 345.048 456.105 344.798 456.17L344.712 456.185L337.683 456.834C337.378 456.863 337.118 456.632 337.098 456.338L337.099 456.249L338.721 439.327L336.568 433.404C336.478 433.156 336.581 432.885 336.801 432.757L336.889 432.716Z" fill="#DD936F"/>
<path d="M358.498 428.523C359.291 428.281 360.129 428.727 360.371 429.52C360.613 430.312 360.166 431.15 359.374 431.392C357.793 431.874 355.109 432.018 350.704 431.991L348.964 431.974L344.94 431.918C344.112 431.911 343.446 431.234 343.453 430.405C343.46 429.577 344.137 428.911 344.966 428.918L350.268 428.988L351.513 428.994C355.105 428.996 357.405 428.856 358.498 428.523Z" fill="#253368"/>
<path d="M349.956 459.253C350.345 459.11 350.776 459.309 350.919 459.698C351.062 460.087 350.863 460.518 350.475 460.661L350.199 460.756C350.044 460.806 349.847 460.867 349.607 460.937C348.919 461.137 348.117 461.337 347.209 461.523C344.49 462.079 341.404 462.4 338.016 462.366C337.602 462.362 337.269 462.023 337.273 461.609C337.278 461.195 337.617 460.862 338.031 460.866C341.309 460.899 344.29 460.589 346.908 460.053C347.631 459.905 348.281 459.749 348.854 459.591L349.189 459.497C349.573 459.385 349.831 459.299 349.956 459.253Z" fill="#FF7946"/>
<path fill-rule="evenodd" clip-rule="evenodd" d="M370.006 445.461L374.566 433.59C374.566 433.59 376.527 416.945 372.043 410.328C365.089 400.061 351.735 401.72 343.495 399.632C335.257 397.544 335.059 394.863 331.882 395.636C328.705 396.41 317.118 406.383 316.647 415.625C316.23 423.749 320.349 443.919 320.349 443.919C320.349 443.919 320.754 425.645 322.006 420.701C328.033 417.429 350.893 414.963 360.741 416.933C360.741 416.933 362.196 422.991 363.115 427.269C368.601 430.404 370.006 445.461 370.006 445.461Z" fill="#253368"/>
<path d="M369.444 460.585C369.549 460.308 369.86 460.168 370.137 460.273C370.414 460.379 370.554 460.689 370.448 460.966C369.181 464.309 367.605 467.204 365.792 469.684C364.028 472.095 362.135 473.988 360.238 475.421C359.571 475.925 358.949 476.336 358.39 476.661C358.049 476.86 357.8 476.987 357.687 477.037C349.93 481.061 342.791 481.018 336.747 478.523C335.847 478.151 335.052 477.752 334.37 477.353L334.046 477.158C333.803 477.007 333.624 476.886 333.514 476.804C333.276 476.627 333.226 476.291 333.403 476.053C333.579 475.814 333.916 475.764 334.154 475.941L334.292 476.039C334.434 476.135 334.642 476.267 334.913 476.426C335.554 476.801 336.304 477.178 337.157 477.53C342.811 479.864 349.468 479.949 356.78 476.294L357.415 475.974C357.528 475.915 357.674 475.835 357.85 475.733C358.373 475.429 358.958 475.042 359.59 474.564C361.406 473.193 363.224 471.374 364.925 469.049C366.682 466.648 368.211 463.837 369.444 460.585Z" fill="#DD936F"/>
<path d="M343.151 438.037C343.744 438.001 344.253 438.452 344.289 439.044C344.322 439.597 343.932 440.077 343.398 440.168L343.282 440.181L338.096 440.496C337.504 440.532 336.995 440.081 336.959 439.489C336.925 438.937 337.316 438.456 337.85 438.366L337.966 438.352L343.151 438.037Z" fill="#253368"/>
<path d="M340.183 440.999C341.157 440.904 342.157 441.074 343.134 441.41C343.605 441.571 343.97 441.736 344.195 441.855C344.719 442.132 344.919 442.782 344.641 443.307C344.383 443.793 343.804 444 343.303 443.805L343.044 443.681C342.897 443.614 342.689 443.528 342.436 443.441C341.725 443.197 341.015 443.076 340.393 443.137C339.837 443.191 339.385 443.386 339.023 443.755L338.892 443.902C338.515 444.36 337.838 444.425 337.38 444.048C336.922 443.671 336.856 442.994 337.233 442.536C337.998 441.607 339.018 441.113 340.183 440.999Z" fill="#253368"/>
<path d="M327.001 429.309C329.267 429.085 331.643 429.409 333.974 430.08C335.065 430.394 335.906 430.712 336.404 430.934C337.16 431.271 337.5 432.158 337.162 432.915C336.824 433.671 335.938 434.011 335.181 433.673L334.985 433.591C334.897 433.556 334.787 433.512 334.655 433.463C334.206 433.293 333.698 433.122 333.144 432.963C331.147 432.388 329.13 432.113 327.296 432.294C325.689 432.453 324.321 432.957 323.225 433.85C322.583 434.374 321.638 434.277 321.115 433.635C320.591 432.993 320.688 432.048 321.33 431.525C322.917 430.231 324.841 429.522 327.001 429.309Z" fill="#253368"/>
<path d="M345.793 465.56C346.088 465.538 346.346 465.76 346.368 466.056C346.387 466.322 346.21 466.557 345.958 466.618L345.872 466.631L341.651 466.943C341.355 466.965 341.098 466.743 341.076 466.447C341.056 466.181 341.234 465.946 341.485 465.886L341.572 465.872L345.793 465.56Z" fill="#DD936F"/>
<path d="M370.817 435.91C371.408 435.863 371.925 436.304 371.972 436.895C372.016 437.447 371.634 437.935 371.103 438.035L370.986 438.051L362.495 438.724C361.904 438.771 361.386 438.33 361.339 437.739C361.296 437.187 361.677 436.699 362.209 436.599L362.325 436.583L370.817 435.91Z" fill="#253368"/>
<path fill-rule="evenodd" clip-rule="evenodd" d="M361.647 436.025L345.428 437.221C344.297 437.305 343.446 438.286 343.538 439.418C343.709 441.53 344.078 444.908 344.84 447.767C345.74 451.141 348.971 453.008 352.46 452.912C356.817 452.792 360.718 452.51 362.522 450.11C365.273 446.453 364.119 440.854 363.836 437.864C363.731 436.766 362.747 435.944 361.647 436.025Z" fill="white"/>
<path d="M361.624 435.667L345.404 436.862C344.073 436.961 343.076 438.117 343.184 439.445C343.43 442.49 343.849 445.427 344.497 447.858C345.407 451.269 348.663 453.373 352.472 453.268L353.267 453.243C358.69 453.046 361.248 452.402 362.81 450.323C363.931 448.834 364.498 446.97 364.641 444.743C364.731 443.34 364.663 441.992 364.456 440.127L364.225 438.135C364.214 438.026 364.204 437.925 364.194 437.829C364.071 436.538 362.918 435.571 361.624 435.667ZM361.676 436.38C362.584 436.313 363.396 436.994 363.482 437.897L363.533 438.384L363.696 439.771C363.936 441.829 364.021 443.24 363.927 444.697C363.792 446.796 363.265 448.529 362.238 449.893C360.789 451.821 358.193 452.395 352.452 452.553C348.956 452.649 346.007 450.743 345.188 447.673C344.553 445.292 344.14 442.393 343.897 439.388C343.822 438.456 344.521 437.645 345.457 437.576L361.676 436.38Z" fill="#253368"/>
<path fill-rule="evenodd" clip-rule="evenodd" d="M336.34 437.707L317.979 439.06C317.496 441.795 318.916 452.122 322.233 454.114C326.617 456.013 335.071 454.428 336.232 452.077C337.99 448.512 338.253 441.937 338.011 439.134C337.938 438.279 337.195 437.644 336.34 437.707Z" fill="white"/>
<path d="M336.313 437.353L317.951 438.706C317.788 438.718 317.654 438.839 317.625 439.001C316.923 442.975 319.085 452.644 322.047 454.423C326.442 456.33 335.231 454.912 336.552 452.238C338.075 449.15 338.709 443.083 338.367 439.106C338.276 438.055 337.363 437.276 336.313 437.353ZM336.365 438.067C337.025 438.018 337.597 438.507 337.654 439.167C337.986 443.026 337.364 448.973 335.91 451.922C334.79 454.189 326.417 455.54 322.374 453.788L322.23 453.693C319.79 451.945 317.838 443.448 318.268 439.56L318.288 439.398L336.365 438.067Z" fill="#253368"/>
<path d="M363.31 434.935C363.9 434.876 364.427 435.307 364.486 435.897C364.541 436.448 364.169 436.943 363.64 437.054L363.524 437.072L343.458 439.081C342.868 439.14 342.342 438.709 342.283 438.119C342.228 437.568 342.599 437.073 343.129 436.962L343.244 436.944L363.31 434.935Z" fill="#253368"/>
<path d="M337.512 437.228C338.104 437.193 338.613 437.645 338.648 438.237C338.681 438.789 338.29 439.269 337.756 439.359L337.64 439.373L317.919 440.547C317.327 440.582 316.818 440.131 316.783 439.539C316.75 438.986 317.141 438.506 317.675 438.416L317.791 438.403L337.512 437.228Z" fill="#253368"/>
<path fill-rule="evenodd" clip-rule="evenodd" d="M371.64 436.077C373.466 433.715 376.602 432.762 379.148 434.958C383.249 438.497 381.537 453.581 371.756 455.318C367.958 455.226 368.795 439.763 371.64 436.077Z" fill="#FFC999"/>
<path d="M375.943 436.95C376.207 436.815 376.531 436.919 376.666 437.183C376.801 437.447 376.697 437.77 376.433 437.906L376.307 437.976C376.229 438.021 376.128 438.084 376.01 438.162C375.68 438.382 375.349 438.642 375.042 438.94C373.871 440.077 373.375 441.396 373.878 442.924C374.009 443.319 374.183 443.5 374.588 443.697L374.855 443.817C375.723 444.196 376.122 444.556 376.299 445.438C376.571 446.8 376.004 447.897 374.935 448.708C374.426 449.095 373.921 449.338 373.567 449.459C373.286 449.555 372.981 449.405 372.885 449.124C372.79 448.844 372.939 448.538 373.22 448.443L373.314 448.407C373.374 448.382 373.451 448.349 373.541 448.305C373.796 448.183 374.051 448.032 374.286 447.853C375.056 447.268 375.426 446.552 375.246 445.648C375.162 445.227 375.029 445.079 374.562 444.863L374.297 444.745C373.537 444.409 373.115 444.039 372.858 443.26C372.209 441.286 372.855 439.566 374.294 438.17C374.652 437.822 375.033 437.522 375.416 437.268C375.647 437.113 375.831 437.007 375.943 436.95Z" fill="#DD936F"/>
<path d="M330.873 442.275C332.94 442.123 334.71 443.872 334.877 446.131C334.908 446.544 334.598 446.904 334.185 446.934C333.772 446.965 333.412 446.655 333.381 446.242C333.272 444.767 332.176 443.683 330.983 443.771C329.791 443.859 328.865 445.091 328.973 446.567C329.004 446.98 328.693 447.339 328.28 447.369C327.867 447.4 327.508 447.089 327.477 446.676C327.312 444.416 328.806 442.427 330.873 442.275Z" fill="#253368"/>
<path d="M353.794 440.587C355.861 440.435 357.631 442.184 357.798 444.444C357.828 444.857 357.518 445.216 357.105 445.247C356.692 445.277 356.332 444.967 356.302 444.554C356.193 443.079 355.097 441.995 353.904 442.083C352.712 442.171 351.787 443.403 351.895 444.879C351.925 445.292 351.615 445.652 351.202 445.682C350.789 445.712 350.429 445.402 350.399 444.989C350.234 442.729 351.727 440.74 353.794 440.587Z" fill="#253368"/>
<path fill-rule="evenodd" clip-rule="evenodd" d="M408.345 615.612C408.345 615.612 408.714 578.363 410.95 561.588C413.485 542.583 421.345 508.064 415.558 503.433C407.112 496.676 381.225 488.258 381.225 488.258C381.225 488.258 368.251 489.746 353.662 492.852C342.114 495.312 343.711 488.055 329.71 490.37C323.781 491.349 302.826 498.626 298.993 502.869C288.64 514.329 296.407 535.313 300.682 555.803C307.068 586.421 317.011 614.367 317.011 614.367C317.011 614.367 310.012 627.896 315.925 634.653C319.254 638.109 318.795 636.549 337.242 636.594C358.24 636.645 402.079 635.568 405.25 634.442C415.453 630.815 408.345 615.612 408.345 615.612Z" fill="#597EF7"/>
<path fill-rule="evenodd" clip-rule="evenodd" d="M334.888 484.727L349.786 493.118L334.713 508.676L328.875 490.773L334.888 484.727Z" fill="#597EF7"/>
<path fill-rule="evenodd" clip-rule="evenodd" d="M349.438 493.486L362.683 512.039L382.151 489.163L373.522 478.75L349.438 493.486Z" fill="#597EF7"/>
<path d="M348.534 494.959C348.945 495.009 349.238 495.383 349.187 495.795L349.132 496.285L349.015 497.428L348.899 498.687C348.773 500.12 348.649 501.759 348.531 503.6L348.433 505.208C347.707 517.661 347.611 533.084 348.52 551.235C349.825 577.306 353.072 605.792 358.684 636.418C358.759 636.825 358.489 637.216 358.082 637.291C357.675 637.366 357.284 637.096 357.209 636.688C351.584 605.997 348.33 577.445 347.022 551.31L346.908 548.951C346.102 531.373 346.244 516.416 346.984 504.307L347.034 503.504C347.153 501.651 347.278 500 347.405 498.555L347.522 497.284L347.691 495.674C347.694 495.65 347.696 495.629 347.698 495.612C347.745 495.235 348.063 494.958 348.432 494.953L348.534 494.959Z" fill="#253368"/>
<path d="M392.766 530.852L377.781 531.346C373.18 531.493 368.337 531.645 363.321 531.798C362.903 531.811 362.576 532.163 362.595 532.581L362.67 534.157C362.939 539.333 363.362 543.749 363.9 547.458C364.214 549.627 364.55 551.433 364.889 552.901L364.973 553.261C365.077 553.693 365.175 554.068 365.266 554.391L365.333 554.622C365.4 554.85 365.45 555.002 365.478 555.083C365.529 555.223 365.62 555.346 365.74 555.434L379.676 565.711C379.942 565.907 380.304 565.906 380.569 565.709L393.802 555.854C393.997 555.708 394.11 555.477 394.104 555.234L393.542 531.584C393.532 531.166 393.183 530.838 392.766 530.852ZM392.059 532.377L392.595 554.882L380.119 564.173L366.823 554.37L366.772 554.198C366.67 553.853 366.556 553.425 366.432 552.911C366.103 551.541 365.774 549.835 365.462 547.767L365.306 546.688C364.815 543.161 364.426 539.001 364.173 534.162L364.128 533.275L380.561 532.757L392.059 532.377Z" fill="#253368"/>
<path fill-rule="evenodd" clip-rule="evenodd" d="M349.609 511.042C349.747 512.371 350.758 513.355 351.864 513.239C352.971 513.124 353.758 511.954 353.619 510.625C353.481 509.296 352.471 508.312 351.364 508.427C350.257 508.543 349.471 509.713 349.609 511.042Z" fill="white"/>
<path fill-rule="evenodd" clip-rule="evenodd" d="M350.027 538.143C350.167 539.472 351.176 540.456 352.283 540.341C353.39 540.225 354.176 539.055 354.038 537.726C353.9 536.397 352.889 535.413 351.782 535.529C350.675 535.644 349.889 536.814 350.027 538.143Z" fill="white"/>
<path fill-rule="evenodd" clip-rule="evenodd" d="M350.875 563.272C351.013 564.601 352.024 565.585 353.131 565.47C354.238 565.354 355.024 564.184 354.886 562.855C354.747 561.526 353.737 560.542 352.63 560.658C351.523 560.773 350.737 561.943 350.875 563.272Z" fill="white"/>
<path fill-rule="evenodd" clip-rule="evenodd" d="M352.985 590.514C353.123 591.843 354.132 592.827 355.239 592.712C356.346 592.596 357.132 591.426 356.994 590.097C356.856 588.768 355.845 587.784 354.74 587.9C353.633 588.015 352.845 589.185 352.985 590.514Z" fill="white"/>
<path fill-rule="evenodd" clip-rule="evenodd" d="M357.094 620.807C357.232 622.136 358.243 623.12 359.35 623.005C360.455 622.889 361.243 621.719 361.103 620.39C360.965 619.061 359.956 618.077 358.849 618.193C357.742 618.308 356.956 619.478 357.094 620.807Z" fill="white"/>
<path d="M379.465 487.798C379.702 487.458 380.169 487.374 380.509 487.611C380.818 487.826 380.915 488.232 380.753 488.56L380.696 488.655L366.374 509.222C366.134 509.566 365.666 509.641 365.333 509.411L365.246 509.34L349.136 494.243C348.833 493.96 348.818 493.485 349.101 493.183C349.359 492.908 349.774 492.87 350.075 493.079L350.161 493.148L365.638 507.652L379.465 487.798Z" fill="#253368"/>
<path d="M328.04 492.141C328.394 492.003 328.789 492.152 328.968 492.475L329.011 492.568L335.843 510.082L348.549 493.142C348.775 492.84 349.184 492.757 349.506 492.932L349.599 492.992C349.9 493.218 349.983 493.627 349.809 493.948L349.749 494.042L336.234 512.061C335.903 512.502 335.239 512.442 334.981 511.981L334.935 511.884L327.614 493.113C327.463 492.727 327.654 492.292 328.04 492.141Z" fill="#253368"/>
<path d="M298.861 534.348C299.273 534.305 299.641 534.605 299.684 535.017C300.793 545.793 302.415 555.442 304.77 565.685L305.111 567.153C306.471 572.933 308.03 578.828 310.219 586.572L318.297 614.726C318.345 614.895 318.331 615.076 318.26 615.236C314.949 622.629 315.309 628.473 317.873 632.876C318.302 633.613 318.761 634.241 319.217 634.76L319.429 634.994L319.618 635.188L320.433 635.246C325.126 635.56 330.203 635.768 335.609 635.877L336.863 635.9C348.228 636.096 360.363 635.866 372.369 635.353L374.619 635.254C377.756 635.11 380.658 634.958 383.273 634.804L387.468 634.54C387.882 634.51 388.24 634.822 388.27 635.235C388.299 635.648 387.988 636.007 387.575 636.036L384.881 636.211L381.903 636.386C379.922 636.497 377.794 636.607 375.539 636.713L374.687 636.752C361.923 637.335 348.948 637.608 336.837 637.4C330.515 637.291 324.625 637.051 319.25 636.667C319.091 636.656 318.939 636.594 318.818 636.491C318.237 635.999 317.402 635.048 316.577 633.63C313.825 628.905 313.396 622.701 316.696 615.065L316.78 614.874L309.476 589.448L308.775 586.977C306.581 579.215 305.017 573.301 303.651 567.496C301.096 556.641 299.36 546.526 298.192 535.171C298.149 534.759 298.449 534.39 298.861 534.348Z" fill="#253368"/>
<path fill-rule="evenodd" clip-rule="evenodd" d="M395.719 636.777C405.886 637.332 414.718 629.852 415.844 619.733L426.052 528.065C427.553 514.583 417.413 502.611 403.868 501.872C390.482 501.143 379.174 511.689 378.97 525.093L377.569 617.316C377.413 627.624 385.426 636.216 395.719 636.777Z" fill="#FFC999"/>
<path fill-rule="evenodd" clip-rule="evenodd" d="M378.176 582.169L423.192 583.806L426.455 523.596C427.167 510.417 416.936 499.215 403.746 498.735C390.557 498.255 379.538 508.686 379.293 521.881L378.176 582.169Z" fill="#597EF7"/>
<path d="M379.251 522.109C379.631 522.116 379.939 522.404 379.983 522.771L379.988 522.873L378.938 581.446L423.219 583.057C423.599 583.07 423.902 583.364 423.939 583.731L423.942 583.833C423.928 584.213 423.635 584.516 423.267 584.552L423.165 584.555L378.148 582.919C377.774 582.905 377.473 582.619 377.431 582.257L377.426 582.156L378.488 522.846C378.495 522.432 378.837 522.102 379.251 522.109Z" fill="#253368"/>
<path fill-rule="evenodd" clip-rule="evenodd" d="M235.961 670.972L324.231 664.047L239.894 631.086L166.617 644.026L235.961 670.972Z" fill="#CCD7EE"/>
<path fill-rule="evenodd" clip-rule="evenodd" d="M233.15 664.637L297.259 659.606L237.509 635.668L182.789 645.067L233.15 664.637Z" fill="#4E5C93"/>
<path fill-rule="evenodd" clip-rule="evenodd" d="M323.822 668.542L324.243 664.078L234.215 670.432L235.344 675.322L323.822 668.542Z" fill="#4E5C93"/>
<path d="M225.108 638.695C225.184 638.531 225.364 638.447 225.534 638.486L225.606 638.511L273.996 660.708C274.184 660.794 274.266 661.017 274.18 661.205C274.105 661.37 273.925 661.454 273.755 661.414L273.683 661.39L225.293 639.193C225.105 639.106 225.022 638.884 225.108 638.695Z" fill="#CCD7EE"/>
<path d="M231.926 636.568C231.999 636.402 232.177 636.315 232.348 636.352L232.42 636.375L286.609 660.143C286.799 660.226 286.885 660.447 286.802 660.637C286.729 660.803 286.551 660.89 286.38 660.853L286.308 660.83L232.119 637.062C231.929 636.979 231.843 636.758 231.926 636.568Z" fill="#CCD7EE"/>
<path d="M224.001 643.163C224.079 643 224.26 642.918 224.429 642.96L224.501 642.986L265.085 662.289C265.272 662.378 265.352 662.602 265.263 662.789C265.185 662.953 265.004 663.034 264.834 662.992L264.763 662.966L224.179 643.663C223.992 643.574 223.912 643.35 224.001 643.163Z" fill="#CCD7EE"/>
<path d="M212.447 643.405C212.524 643.242 212.705 643.16 212.875 643.202L212.946 643.228L253.53 662.531C253.717 662.62 253.797 662.844 253.708 663.031C253.63 663.195 253.449 663.276 253.28 663.234L253.208 663.209L212.624 643.905C212.437 643.816 212.358 643.592 212.447 643.405Z" fill="#CCD7EE"/>
<path d="M201.716 644.37C201.794 644.207 201.975 644.125 202.144 644.167L202.216 644.193L242.8 663.496C242.987 663.585 243.066 663.809 242.977 663.996C242.9 664.16 242.719 664.241 242.549 664.199L242.478 664.173L201.894 644.87C201.707 644.781 201.627 644.557 201.716 644.37Z" fill="#CCD7EE"/>
<path d="M287.122 656.047C287.329 656.038 287.504 656.198 287.514 656.405C287.521 656.586 287.399 656.743 287.23 656.786L287.155 656.797L232.443 659.209C232.236 659.218 232.061 659.057 232.051 658.85C232.044 658.669 232.165 658.513 232.334 658.47L232.41 658.459L287.122 656.047Z" fill="#CCD7EE"/>
<path d="M275.439 650.86C275.645 650.851 275.821 651.011 275.83 651.218C275.838 651.399 275.716 651.556 275.547 651.598L275.472 651.609L220.759 654.021C220.552 654.03 220.377 653.87 220.368 653.663C220.36 653.482 220.482 653.325 220.651 653.283L220.726 653.272L275.439 650.86Z" fill="#CCD7EE"/>
<path d="M260.759 646.86C260.966 646.851 261.141 647.011 261.15 647.218C261.158 647.399 261.036 647.556 260.867 647.598L260.792 647.609L206.079 650.021C205.872 650.03 205.697 649.87 205.688 649.663C205.68 649.482 205.802 649.325 205.971 649.283L206.046 649.272L260.759 646.86Z" fill="#CCD7EE"/>
<path d="M251.274 638.567C251.481 638.558 251.656 638.718 251.666 638.925C251.674 639.106 251.552 639.263 251.383 639.305L251.307 639.316L196.595 641.728C196.388 641.737 196.213 641.577 196.203 641.37C196.196 641.189 196.318 641.032 196.487 640.99L196.562 640.979L251.274 638.567Z" fill="#CCD7EE"/>
<path fill-rule="evenodd" clip-rule="evenodd" d="M235.275 675.319L231.332 675.349L165.777 648.931L147.57 533.156L218.832 553.318L235.275 675.319Z" fill="#4E5C93"/>
<path fill-rule="evenodd" clip-rule="evenodd" d="M231.191 675.348L162.057 647.522C161.426 647.268 160.973 646.7 160.868 646.028L143.247 534.755C143.027 533.355 144.33 532.2 145.692 532.587L213.281 551.81C214.022 552.02 214.566 552.65 214.67 553.413L231.191 675.348Z" fill="#253368"/>
<path fill-rule="evenodd" clip-rule="evenodd" d="M285.506 639.528C287.234 644.205 291.881 647.145 296.848 646.702L397.508 637.755C408.67 636.763 416.615 626.466 414.743 615.417C412.867 604.348 401.939 597.241 391.061 600.016L293.14 624.993C286.786 626.613 283.232 633.378 285.506 639.528Z" fill="#FFC999"/>
<path fill-rule="evenodd" clip-rule="evenodd" d="M291.108 647.027C283.982 652.031 261.921 648.751 261.921 648.751L247.214 656.029C244.94 656.938 244.397 655.421 243.272 655.421C240.24 655.421 240.24 652.238 240.24 652.238C239.195 651.742 237.512 652.541 237.056 649.66C237.056 649.66 234.933 649.508 234.782 646.931C234.702 645.569 248.522 625.91 248.522 625.91L269.145 626.474C269.145 626.474 299.273 627.037 302.651 633.794C306.03 640.552 291.108 647.027 291.108 647.027Z" fill="#FFC999"/>
<path d="M260.365 636.24C260.659 636.135 260.982 636.288 261.087 636.582C261.182 636.847 261.067 637.136 260.829 637.267L260.745 637.305L252.386 640.291L242.15 651.429C242.083 651.494 241.981 651.61 241.871 651.762L241.788 651.882C241.502 652.316 241.38 652.732 241.473 653.072C241.63 653.645 242.412 654.161 244.091 654.497C244.397 654.558 244.596 654.856 244.534 655.163C244.473 655.469 244.175 655.668 243.869 655.606C241.815 655.195 240.676 654.443 240.382 653.371C240.186 652.654 240.396 651.938 240.844 651.26C241.002 651.02 241.161 650.827 241.276 650.706L241.339 650.642L251.648 639.423C251.69 639.378 251.738 639.34 251.791 639.311L251.875 639.273L260.365 636.24Z" fill="#DD936F"/>
<path d="M255.31 631.411C255.592 631.276 255.929 631.396 256.064 631.677C256.185 631.931 256.1 632.23 255.877 632.385L255.797 632.431L249.244 635.559L239.439 647.773L239.312 647.919L239.25 647.994C239.101 648.176 238.952 648.379 238.813 648.594C238.501 649.079 238.293 649.551 238.232 649.963C238.105 650.826 238.633 651.405 240.33 651.679C240.638 651.728 240.848 652.019 240.798 652.327C240.749 652.635 240.459 652.845 240.15 652.795C237.888 652.431 236.888 651.333 237.113 649.799C237.201 649.2 237.47 648.59 237.862 647.982C238.025 647.729 238.199 647.493 238.373 647.279L238.487 647.143C238.52 647.104 238.546 647.074 238.565 647.054L238.586 647.032L248.442 634.752C248.478 634.707 248.519 634.669 248.566 634.637L248.639 634.595L255.31 631.411Z" fill="#DD936F"/>
<path d="M265.613 641.372C265.92 641.317 266.215 641.52 266.271 641.828C266.321 642.104 266.161 642.37 265.904 642.462L265.815 642.485L255.976 644.273L245.311 654.643L245.309 654.662C245.305 654.726 245.311 654.792 245.328 654.854L245.362 654.945C245.522 655.266 246.053 655.494 247.201 655.464C248.154 655.439 250.035 654.588 252.482 653.134C252.984 652.836 253.503 652.516 254.038 652.177C255.195 651.444 256.366 650.658 257.492 649.871L258.056 649.474L258.959 648.825C259.039 648.766 259.133 648.729 259.231 648.718L259.794 648.663L260.368 648.615C260.671 648.591 260.998 648.567 261.348 648.544C263.999 648.372 266.945 648.313 270.016 648.435L272.136 648.532C281.095 648.962 286.328 648.454 292.426 645.588L292.834 645.393L293.043 645.338L343.723 641.959C344.035 641.938 344.304 642.174 344.325 642.485C344.344 642.766 344.154 643.012 343.889 643.074L343.798 643.087L293.226 646.459L292.905 646.613C286.74 649.51 281.452 650.075 272.685 649.69L269.971 649.565C266.943 649.444 264.035 649.503 261.421 649.673L260.764 649.719C260.555 649.734 260.357 649.75 260.169 649.766L259.505 649.827L258.711 650.397C258.529 650.525 258.339 650.659 258.139 650.799C257.001 651.594 255.816 652.389 254.643 653.133C254.1 653.477 253.571 653.802 253.06 654.106C250.436 655.665 248.453 656.562 247.231 656.594C245.686 656.635 244.737 656.228 244.349 655.448C244.165 655.076 244.143 654.694 244.212 654.345C244.226 654.275 244.242 654.218 244.255 654.178C244.275 654.122 244.302 654.069 244.338 654.022L244.396 653.955L255.312 643.343C255.372 643.284 255.445 643.24 255.524 643.213L255.605 643.192L265.613 641.372Z" fill="#DD936F"/>
<path d="M381.627 601.433C381.929 601.353 382.238 601.533 382.318 601.835C382.39 602.107 382.251 602.385 382.002 602.496L381.916 602.527L287.03 627.584L286.869 627.602L248.823 626.486L235.28 647.198L235.234 647.295C235.216 647.336 235.195 647.385 235.174 647.441L235.141 647.529C235.046 647.799 234.993 648.065 235 648.295C235.02 648.924 235.493 649.244 237.001 649.099C237.312 649.069 237.589 649.297 237.619 649.607C237.649 649.918 237.421 650.195 237.11 650.225C235.007 650.427 233.912 649.686 233.868 648.331C233.857 647.941 233.937 647.544 234.074 647.153C234.131 646.992 234.188 646.857 234.248 646.738L234.308 646.622L248.05 625.603C248.14 625.466 248.283 625.375 248.443 625.352L248.54 625.347L286.822 626.469L381.627 601.433Z" fill="#DD936F"/>
<path d="M277.168 580.119L307.529 583.777C307.941 583.827 308.234 584.2 308.184 584.612C308.139 584.988 307.821 585.266 307.452 585.272L307.35 585.266L276.988 581.608C276.577 581.558 276.284 581.185 276.334 580.774C276.379 580.397 276.697 580.119 277.066 580.113L277.168 580.119Z" fill="#253368"/>
</svg>
