<svg width="9443" height="18886" viewBox="0 0 9443 18886" fill="none" xmlns="http://www.w3.org/2000/svg">
<path fill-rule="evenodd" clip-rule="evenodd" d="M6393.76 7396.1C6283.79 7548.34 6074.09 7588.23 5915.93 7487.01L4483.02 6570.22C4272.24 6435.38 4218.18 6151.12 4364.67 5948.31C4509.47 5747.9 4791.84 5708.06 4986.44 5860.58L6325.18 6910.11C6474.82 7027.41 6505.08 7241.98 6393.76 7396.1Z" fill="#FFC999"/>
<path fill-rule="evenodd" clip-rule="evenodd" d="M5332.36 7179.47L4422.18 6602.15C4229.99 6452.76 4229.88 6069.57 4382.67 5880.07C4535.47 5690.59 4813.94 5663.23 5000.68 5819.37L5853.87 6532.71C5853.87 6532.71 5598.55 7048.36 5332.36 7179.47Z" fill="#597EF7"/>
<path fill-rule="evenodd" clip-rule="evenodd" d="M6997.81 5355.3C7089.83 5402.89 7131.79 5511.69 7095.58 5608.77L6458.9 7314.9C6385.75 7510.83 6159.56 7600.9 5971.77 7508.89C5788.24 7418.95 5718.89 7192.62 5820.53 7015.29L6726.11 5435.37C6780.64 5340.23 6900.4 5304.93 6997.81 5355.3Z" fill="#FFC999"/>
<path fill-rule="evenodd" clip-rule="evenodd" d="M3878.98 5744.95L4109.46 5493.42L4036.81 4665.63L3392.3 4725.66L3395.54 5544.82L3878.98 5744.95Z" fill="#FFC999"/>
<path fill-rule="evenodd" clip-rule="evenodd" d="M4201.55 4583.88C4201.55 4583.88 4297.22 4478.64 4340.9 4546.17C4384.55 4613.73 4319.24 4861.94 4212.39 4871.57C4069.67 4884.43 4201.55 4583.88 4201.55 4583.88Z" fill="#FFC999"/>
<path fill-rule="evenodd" clip-rule="evenodd" d="M3597.81 5233.02C3597.81 5233.02 3813.13 5398.62 4086.13 5219.57C4282.66 5090.68 4293.7 4645.63 4245.06 4320.74C4217.53 4136.87 4129.39 4040.24 3947.8 3991.19C3766.18 3942.14 3278.31 3955.39 3292 4498.48C3307.27 5103.41 3597.81 5233.02 3597.81 5233.02Z" fill="#FFC999"/>
<path d="M3933.77 4415.96L3935.54 4416.19C3940.29 4417.24 3943.48 4421.53 3943.31 4426.22L3943.08 4428L3918.05 4541.53L3988.62 4846.96C3989.89 4852.47 3986.33 4857.78 3981.01 4858.89L3979.36 4859.09L3849.31 4864.24C3843.85 4864.45 3839.24 4860.2 3839.02 4854.73C3838.83 4849.81 3842.26 4845.59 3846.93 4844.64L3848.53 4844.44L3966.61 4839.76L3898.25 4543.79C3898.03 4542.83 3897.95 4541.85 3898.02 4540.88L3898.23 4539.43L3923.74 4423.73C3924.78 4418.98 3929.08 4415.79 3933.77 4415.96Z" fill="#DD936F"/>
<path d="M3808.71 4390.06C3810.74 4404.5 3800.67 4417.85 3786.23 4419.88L3699.43 4432.55L3688.28 4434.13C3603.62 4446.04 3552.2 4450.3 3521.41 4445.18C3507.02 4442.78 3497.3 4429.18 3499.69 4414.8C3501.95 4401.26 3514.13 4391.85 3527.55 4392.78L3535.06 4393.75C3557.29 4396.08 3597.88 4392.94 3658.31 4384.93L3697.74 4379.44L3778.88 4367.58C3793.32 4365.55 3806.68 4375.62 3808.71 4390.06Z" fill="#253368"/>
<path d="M3744.24 4943.53C3745.91 4936.08 3753.31 4931.4 3760.77 4933.07L3765.7 4934.04L3767.65 4934.39C3773.6 4935.44 3780.62 4936.49 3788.66 4937.48C3842.75 4944.1 3908.51 4944.28 3982.75 4933.7C3990.31 4932.63 3997.31 4937.88 3998.39 4945.45C3999.47 4953.01 3994.21 4960.02 3986.65 4961.09C3909.88 4972.03 3841.7 4971.85 3785.29 4964.94L3775.56 4963.65C3772.48 4963.21 3769.57 4962.77 3766.84 4962.32L3757.09 4960.57C3756.1 4960.37 3755.3 4960.2 3754.7 4960.06C3747.24 4958.39 3742.56 4950.99 3744.24 4943.53Z" fill="#FF7946"/>
<path fill-rule="evenodd" clip-rule="evenodd" d="M3360.86 4729.36L3248.76 4523.34C3248.76 4523.34 3172.68 4223.76 3238.61 4091.93C3340.94 3887.38 3589.1 3885.39 3734.7 3827.29C3880.3 3769.16 3877.42 3719.67 3937.37 3726.15C3997.35 3732.59 4233.33 3886.93 4264.32 4054.75C4291.57 4202.29 4265.09 4581.05 4265.09 4581.05C4265.09 4581.05 4213.44 4247.88 4178.58 4160.51C4060.48 4115.28 3636.54 4125.52 3461.26 4185.33C3461.26 4185.33 3449.3 4299.64 3442.86 4380.09C3350.15 4450.66 3360.86 4729.36 3360.86 4729.36Z" fill="#253368"/>
<path d="M4089.52 5200.59C4093.09 5196.44 4099.34 5195.97 4103.49 5199.53C4107.64 5203.1 4108.11 5209.35 4104.55 5213.5C4101.84 5216.65 4096.65 5221.88 4088.93 5228.48C4076.24 5239.32 4060.9 5250.12 4042.85 5260.18C3945.78 5314.31 3816.05 5325.77 3652.45 5268.46C3647.29 5266.65 3644.57 5261 3646.38 5255.83C3648.18 5250.67 3653.84 5247.95 3659 5249.76C3817.24 5305.19 3941.07 5294.26 4033.21 5242.88C4050.07 5233.48 4064.34 5223.43 4076.06 5213.42L4080.79 5209.25C4085.07 5205.38 4087.97 5202.39 4089.52 5200.59Z" fill="#DD936F"/>
<path d="M3929.47 4521.91C3940.38 4521.13 3949.85 4529.35 3950.62 4540.27C3951.35 4550.45 3944.24 4559.38 3934.41 4561.16L3932.27 4561.43L3836.68 4568.2C3825.77 4568.98 3816.3 4560.76 3815.53 4549.85C3814.8 4539.66 3821.91 4530.73 3831.74 4528.95L3833.88 4528.69L3929.47 4521.91Z" fill="#253368"/>
<path d="M3846.51 4588.32C3866.54 4579.01 3887.06 4574.03 3907.25 4576.03C3924.31 4577.71 3939.89 4584.42 3952.98 4596.63C3960.98 4604.1 3961.41 4616.63 3953.95 4624.63C3946.48 4632.63 3933.95 4633.06 3925.95 4625.6C3919.41 4619.5 3912 4616.31 3903.36 4615.45C3891.36 4614.27 3877.38 4617.65 3863.22 4624.24C3855.67 4627.75 3849.94 4631.22 3847.05 4633.28C3838.14 4639.63 3825.77 4637.55 3819.42 4628.64C3813.07 4619.73 3815.15 4607.37 3824.06 4601.02C3828.79 4597.65 3836.53 4592.96 3846.51 4588.32Z" fill="#253368"/>
<path d="M3994.48 4357.27C4040.13 4338.85 4086.39 4328.75 4130.67 4331.56C4161.87 4333.54 4190.76 4342.01 4216.46 4357.85C4228.88 4365.5 4232.74 4381.77 4225.09 4394.18C4217.44 4406.6 4201.17 4410.46 4188.75 4402.81C4170.8 4391.74 4150.26 4385.72 4127.32 4384.26C4092.11 4382.03 4053.19 4390.53 4014.23 4406.24C4004.39 4410.21 3995.15 4414.41 3986.67 4418.64L3980.45 4421.82C3974.5 4424.93 3970.39 4427.28 3968.42 4428.49C3956 4436.13 3939.74 4432.26 3932.1 4419.83C3924.46 4407.41 3928.33 4391.15 3940.76 4383.51L3946.38 4380.18C3957.65 4373.72 3974.13 4365.47 3994.48 4357.27Z" fill="#253368"/>
<path d="M3930.09 5033.72C3935.55 5033.4 3940.24 5037.57 3940.56 5043.03C3940.84 5047.95 3937.49 5052.23 3932.84 5053.27L3931.25 5053.49L3853.31 5058.03C3847.85 5058.35 3843.17 5054.18 3842.85 5048.72C3842.56 5043.81 3845.91 5039.52 3850.57 5038.48L3852.16 5038.26L3930.09 5033.72Z" fill="#DD936F"/>
<path d="M3479.83 4548.48C3490.75 4547.91 3500.07 4556.3 3500.65 4567.22C3501.18 4577.42 3493.91 4586.22 3484.06 4587.81L3481.91 4588.04L3325.05 4596.29C3314.12 4596.86 3304.8 4588.47 3304.23 4577.54C3303.69 4567.35 3310.96 4558.55 3320.82 4556.95L3322.97 4556.72L3479.83 4548.48Z" fill="#253368"/>
<path fill-rule="evenodd" clip-rule="evenodd" d="M3490.82 4536.6L3790.27 4519.23C3811.16 4518.01 3829.08 4533.92 3830.16 4554.81C3832.13 4593.84 3833.57 4656.5 3826.54 4710.64C3818.24 4774.47 3763.71 4816.44 3699.67 4823.13C3619.69 4831.51 3547.73 4835.75 3508.92 4796.24C3449.8 4736.04 3457.29 4630.86 3455.27 4575.5C3454.53 4555.19 3470.52 4537.77 3490.82 4536.6Z" fill="white"/>
<path d="M3789.89 4512.64L3490.44 4530.02C3466.54 4531.38 3447.8 4551.86 3448.68 4575.74L3449 4588.79L3449.34 4612.43C3449.97 4647.56 3451.24 4667.18 3455.11 4691.34C3462.45 4737.27 3477.75 4773.92 3504.21 4800.86C3539.44 4836.72 3590.94 4841.16 3700.35 4829.69C3770.26 4822.39 3824.69 4776.04 3833.08 4711.5C3839.05 4665.5 3839.6 4610.99 3836.75 4554.47C3835.49 4529.94 3814.45 4511.21 3789.89 4512.64ZM3790.65 4525.82C3807.01 4524.86 3821.12 4536.61 3823.32 4552.47L3823.57 4555.14C3826.38 4610.93 3825.84 4664.75 3820 4709.8C3812.44 4767.88 3763.14 4809.86 3698.98 4816.57L3684.67 4818.01C3589.28 4827.14 3543.37 4821.89 3513.62 4791.62C3489.36 4766.91 3475.09 4732.71 3468.14 4689.26L3466.85 4680.64C3464.09 4660.81 3463.07 4642.33 3462.54 4612.06L3461.94 4577.23C3461.91 4576.58 3461.89 4575.92 3461.87 4575.26C3461.25 4558.57 3474.45 4544.15 3491.2 4543.19L3790.65 4525.82Z" fill="#253368"/>
<path d="M3700.02 4598.5C3707.3 4598.07 3713.55 4603.64 3713.97 4610.92C3716.36 4652.3 3688.49 4688.24 3650.67 4690.46C3612.86 4692.65 3581.01 4660.17 3578.62 4618.78C3578.2 4611.5 3583.76 4605.25 3591.05 4604.83C3598.33 4604.41 3604.58 4609.97 3605 4617.26C3606.59 4644.81 3626.76 4665.39 3649.13 4664.09C3671.53 4662.77 3689.19 4640 3687.59 4612.45C3687.17 4605.16 3692.74 4598.92 3700.02 4598.5Z" fill="#253368"/>
<path fill-rule="evenodd" clip-rule="evenodd" d="M3957.66 4506.17L4296.66 4486.5C4312.1 4535.3 4311.11 4727.57 4255.31 4772C4179.72 4817.35 4021.29 4808.83 3994.42 4768.66C3953.65 4707.71 3932.9 4588.14 3930.55 4536.3C3929.83 4520.5 3941.86 4507.08 3957.66 4506.17Z" fill="white"/>
<path d="M4296.28 4479.91L3957.27 4499.58C3937.88 4500.7 3923.07 4517.18 3923.95 4536.6C3927.29 4610.04 3953.61 4719.52 3988.94 4772.32C4019.5 4818.03 4183.67 4822.68 4258.7 4777.66C4309.25 4737.48 4325.39 4555.44 4302.96 4484.51C4302.04 4481.63 4299.3 4479.74 4296.28 4479.91ZM4291.77 4493.39L4292.63 4496.62C4310.1 4568.17 4293.98 4732.78 4251.2 4766.84C4182.21 4808.16 4025.82 4803.73 3999.91 4764.99C3966.17 4714.57 3940.37 4607.26 3937.14 4536C3936.58 4523.79 3945.87 4513.46 3958.04 4512.76L4291.77 4493.39Z" fill="#253368"/>
<path d="M4123.13 4573.93C4130.42 4573.51 4136.67 4579.06 4137.09 4586.35C4139.52 4627.74 4111.63 4663.71 4073.82 4665.9C4036.01 4668.09 4004.14 4635.6 4001.74 4594.22C4001.32 4586.93 4006.89 4580.69 4014.17 4580.27C4021.45 4579.85 4027.7 4585.41 4028.12 4592.69C4029.71 4620.24 4049.9 4640.82 4072.29 4639.53C4094.67 4638.23 4112.33 4615.45 4110.72 4587.89C4110.29 4580.61 4115.85 4574.36 4123.13 4573.93Z" fill="#253368"/>
<path d="M3829.55 4508.94C3840.48 4508.59 3849.63 4517.17 3849.98 4528.11C3850.3 4538.31 3842.85 4546.96 3832.96 4548.35L3830.81 4548.53L3459.07 4560.35C3448.14 4560.69 3438.99 4552.11 3438.65 4541.18C3438.32 4530.97 3445.78 4522.33 3455.66 4520.94L3457.82 4520.75L3829.55 4508.94Z" fill="#253368"/>
<path d="M4298.44 4474.05C4309.36 4473.26 4318.84 4481.47 4319.63 4492.38C4320.36 4502.56 4313.26 4511.5 4303.44 4513.29L4301.3 4513.56L3937.86 4539.79C3926.95 4540.57 3917.47 4532.37 3916.68 4521.46C3915.94 4511.27 3923.04 4502.33 3932.87 4500.54L3935.01 4500.27L4298.44 4474.05Z" fill="#253368"/>
<path fill-rule="evenodd" clip-rule="evenodd" d="M3308.23 4561.75C3269.17 4522.97 3209.49 4513.14 3168.27 4559.46C3101.85 4634.07 3169.66 4905.74 3352.66 4913.82C3421.91 4902.94 3369.2 4622.25 3308.23 4561.75Z" fill="#FFC999"/>
<path fill-rule="evenodd" clip-rule="evenodd" d="M2584.52 15693.7C2229.97 15843.2 2048.01 15628 2048.01 15628C2048.01 15628 2037.97 15552.7 2100 15468.5C2177.63 15363.2 2350.53 15325.7 2555.53 15124.1C2713 14969.2 2816.91 14728.2 2816.91 14728.2C2930.67 14560.3 3293.38 14760.2 3293.38 14760.2C3293.38 14760.2 3299.53 15107.1 3292.22 15305.6C3292.22 15305.6 3279.08 15414.9 3007.02 15453.9C2803.49 15483.2 2796.85 15604.2 2584.52 15693.7Z" fill="#4E5C93"/>
<path fill-rule="evenodd" clip-rule="evenodd" d="M4645.61 14666.7C4645.61 14666.7 4630.37 15172.7 4670.76 15305.9C4787.64 15437.9 4890.69 15376.7 5045.84 15508.1C5200.98 15639.5 5527.4 15857.3 5821.21 15629.5C5857.01 15475.9 5759.54 15406.8 5638.84 15325.3C5141.26 14989.1 5228.15 14928.4 5137.49 14733.2C4998.42 14433.8 4642.23 14456.4 4645.61 14666.7Z" fill="#4E5C93"/>
<path fill-rule="evenodd" clip-rule="evenodd" d="M3120.15 7962.63C3120.15 7962.63 2956.02 7140.95 2883.37 6837.41C2810.75 6533.84 2700.42 5807.08 2825.83 5752.66C2951.26 5698.24 3251.53 5582.69 3251.53 5582.69C3251.53 5582.69 3549.43 5620.95 3818.53 5678.24C4031.52 5723.61 3971.05 5523.62 4229.3 5566.28C4338.66 5584.37 4681.9 5638.46 4853.26 5731.94C4921.98 5769.42 4910.88 5997.05 4920.65 6218.32C4951.8 6924.55 4779.47 8006.61 4779.47 8006.61C4779.47 8006.61 4881.67 8111.63 4757.79 8247.82C4696.4 8311.59 4430.62 8289.99 4090.39 8290.82C3703.11 8291.76 3247.55 8340.39 3163.03 8266.75C3004.26 8128.42 3120.15 7962.63 3120.15 7962.63Z" fill="#597EF7"/>
<path fill-rule="evenodd" clip-rule="evenodd" d="M4119.7 5460.15L3860.07 5709.42L4171.63 5927.53L4306.64 5595.16L4119.7 5460.15Z" fill="#597EF7"/>
<path fill-rule="evenodd" clip-rule="evenodd" d="M3409.85 14840.6L3955.63 9674.13L3977.37 9663.43L4550.26 14852.5C4550.26 14852.5 4977.41 14951.5 5203.13 14816C5211.93 13809.9 4975.03 10541.6 4874.77 9049.1C4858.64 8808.8 4784.78 8482.19 4770.03 8391.39C4084.24 8275.5 3155.17 8442.63 3155.17 8442.63L3115.03 8563.11C3107.23 8586.54 3102.49 8610.91 3101 8635.56L2670.39 14789.6C2670.39 14789.6 3092.48 14942.4 3409.85 14840.6Z" fill="#ADC6FF"/>
<path d="M4327.01 9463.41C4331.92 9461.01 4337.85 9463.05 4340.25 9467.96C4342.39 9472.33 4341.01 9477.5 4337.23 9480.28L4335.7 9481.21L3922.39 9683.19C3917.47 9685.59 3911.54 9683.55 3909.14 9678.64C3907.01 9674.27 3908.38 9669.1 3912.16 9666.32L3913.69 9665.39L4327.01 9463.41Z" fill="#597EF7"/>
<path fill-rule="evenodd" clip-rule="evenodd" d="M3158.9 8264.6C3158.9 8264.6 4032.14 8135.54 4758.05 8262.69C4764.02 8327.04 4770.25 8406.27 4770.25 8406.27C4770.25 8406.27 4149.11 8449.04 3144.81 8473.8C3147.61 8299.15 3158.9 8264.6 3158.9 8264.6Z" fill="#ADC6FF"/>
<path d="M3441.78 8449.07C3759.87 8423.19 4086.39 8413.23 4391.32 8428.45C4519.46 8434.85 4640.36 8445.65 4752.82 8461.23C4758.24 8461.98 4762.03 8466.98 4761.27 8472.4C4760.52 8477.81 4755.52 8481.6 4750.1 8480.85C4638.25 8465.35 4517.92 8454.6 4390.33 8448.24C4086.38 8433.06 3760.69 8443 3443.38 8468.81L3393.02 8473.06C3343.71 8477.36 3297.63 8481.82 3255.23 8486.3L3207.68 8491.5L3173.82 8495.49C3170.59 8495.89 3168.13 8496.19 3166.47 8496.41C3161.04 8497.11 3156.08 8493.27 3155.38 8487.85C3154.68 8482.42 3158.52 8477.46 3163.94 8476.76L3183.48 8474.37C3197.15 8472.75 3212.77 8470.97 3230.23 8469.06L3267.45 8465.1C3320.41 8459.62 3378.8 8454.19 3441.78 8449.07Z" fill="#597EF7"/>
<path d="M3438.28 8230.98C3756.37 8205.11 4082.89 8195.15 4387.82 8210.37C4515.97 8216.77 4636.87 8227.57 4749.32 8243.14C4754.74 8243.89 4758.53 8248.89 4757.78 8254.31C4757.03 8259.73 4752.02 8263.51 4746.61 8262.76C4634.76 8247.27 4514.43 8236.52 4386.83 8230.15C4082.89 8214.98 3757.19 8224.91 3439.89 8250.73L3406.08 8253.54C3356.06 8257.81 3309.21 8262.25 3266 8266.72L3212.1 8272.53L3162.97 8278.32C3157.55 8279.02 3152.58 8275.19 3151.88 8269.77C3151.19 8264.34 3155.02 8259.38 3160.44 8258.68L3179.98 8256.29C3191.37 8254.94 3204.12 8253.47 3218.16 8251.92L3263.95 8247.02C3316.91 8241.54 3375.3 8236.11 3438.28 8230.98Z" fill="#597EF7"/>
<path d="M4033.81 8244.58C4039.28 8244.45 4043.83 8248.77 4043.96 8254.24L4045.05 8305.92C4045.48 8328.1 4045.9 8352.54 4046.29 8379C4049.58 8598.31 4049.78 8830.98 4044.86 9048.98L4043.64 9098.58C4038.28 9299.86 4028.55 9468.62 4013.74 9595.18C4013.11 9600.61 4008.19 9604.5 4002.75 9603.86C3997.32 9603.23 3993.43 9598.31 3994.07 9592.88L3996.41 9572.09C4010.98 9438.15 4020.28 9260.07 4025.06 9048.53C4029.59 8847.57 4029.77 8634.05 4027.19 8430.08L4026.32 8368.09L4024.16 8254.73C4024.02 8249.26 4028.35 8244.72 4033.81 8244.58Z" fill="#597EF7"/>
<path fill-rule="evenodd" clip-rule="evenodd" d="M4203.62 8316.22C4204 8340.84 4188.79 8361.06 4169.62 8361.39C4150.47 8361.7 4134.62 8341.97 4134.23 8317.32C4133.84 8292.7 4149.03 8272.48 4168.2 8272.15C4187.38 8271.84 4203.23 8291.57 4203.62 8316.22Z" fill="white"/>
<path fill-rule="evenodd" clip-rule="evenodd" d="M3861.46 5689.1L3621.14 6005.31L3262.07 5583.37L3393.56 5418.98L3861.46 5689.1Z" fill="#597EF7"/>
<path d="M3872.26 5706.21C3879.11 5703.69 3886.7 5707.19 3889.22 5714.04L3891.71 5721.42L3894.18 5729.31C3895.05 5732.17 3895.96 5735.26 3896.92 5738.58L3898.39 5743.74C3904.42 5765.11 3911.01 5791.37 3918.05 5822.93L3921.94 5840.66C3945.51 5950.28 3969.05 6095.19 3991.1 6279.99L3996.96 6330.41C4020.64 6539.34 4040.98 6784.77 4057.03 7069.61L4058.35 7093.44C4082.27 7527.6 4076.73 7900.07 4055.9 8178.49C4055.36 8185.76 4049.02 8191.22 4041.74 8190.67C4034.47 8190.13 4029.01 8183.79 4029.56 8176.51L4031.61 8147.99C4050.31 7878.76 4054.86 7525.82 4033.16 7116.85L4031.97 7094.89C4015.75 6800.38 3994.99 6547.61 3970.71 6333.4L3966.74 6299C3944.25 6107.38 3920.17 5958.1 3896.11 5846.22L3892.28 5828.73C3885.97 5800.45 3880.04 5776.55 3874.59 5756.74L3872.96 5750.91C3871.03 5744.05 3869.27 5738.12 3867.7 5733.11L3865.02 5724.84C3864.76 5724.09 3864.56 5723.54 3864.43 5723.17C3861.91 5716.32 3865.41 5708.73 3872.26 5706.21Z" fill="#253368"/>
<path d="M4922.56 6166.64C4929 6161.25 4938.07 6162.22 4943.33 6168.59C4945.56 6171.3 4946.76 6174.36 4947.71 6178.32C4948.8 6182.85 4949.6 6189.18 4950.17 6197.49L4950.43 6201.81C4951.41 6219.27 4951.57 6244.66 4950.91 6277.18L4950.54 6292.69C4948.38 6375.14 4941.7 6493.26 4930.96 6635.11L4926.95 6686.82C4900.14 7024.77 4855.38 7444.29 4795.28 7900.07L4788.85 7948.31L4791.31 7954.62L4793.43 7960.33C4797.82 7972.33 4802.2 7985.6 4806.29 7999.79C4816.21 8034.25 4822.84 8068.47 4824.62 8100.68C4827.58 8154.49 4816.79 8198.29 4788.15 8227.86C4783.07 8233.1 4774.71 8233.24 4769.47 8228.16C4764.23 8223.09 4764.1 8214.72 4769.17 8209.48C4791.75 8186.17 4800.84 8149.3 4798.24 8102.14C4796.58 8072.15 4790.32 8039.8 4780.9 8007.11C4777.77 7996.25 4774.47 7985.96 4771.13 7976.41L4766.63 7964.04C4765.1 7960 4763.9 7957.01 4763.14 7955.21C4762.23 7953.04 4761.91 7950.66 4762.22 7948.32L4772.46 7870.89C4831.93 7416.93 4876.01 7000.11 4902.11 6665.73L4905.64 6619.51C4915.08 6493.14 4921.19 6386.45 4923.66 6308.3L4924.47 6277.67C4925.09 6247.59 4925.01 6223.78 4924.24 6207.02L4924.06 6203.28C4923.75 6197.88 4923.37 6193.41 4922.94 6189.97L4922.48 6186.79L4922.27 6186.66L4920.91 6185.25C4916.23 6179.66 4916.97 6171.33 4922.56 6166.64Z" fill="#253368"/>
<path d="M4249.29 6109.45L4231.14 6111.01C4225.27 6111.54 4219.59 6112.08 4214.11 6112.62L4187.33 6115.48L4179.14 6116.46C4171.89 6117.39 4166.62 6123.79 4167.09 6131.08L4199.07 6623.9C4199.38 6628.58 4202.03 6632.79 4206.12 6635.08L4473.09 6784.44C4477.67 6787 4483.31 6786.75 4487.64 6783.79L4693.86 6643.01C4697.62 6640.44 4699.88 6636.17 4699.89 6631.61L4699.7 6541.92L4699.39 6484.72C4698.74 6385.62 4697.52 6275.32 4695.6 6155.77C4695.52 6150.44 4692.38 6145.64 4687.53 6143.42C4635.46 6119.56 4560.25 6107.01 4467.57 6103.48C4397.55 6100.81 4322.68 6103.44 4249.29 6109.45ZM4476.37 6131.54C4554.66 6135.13 4619.1 6145.58 4664.94 6163.84L4668.07 6165.12L4669.81 6286.6C4670.6 6349.74 4671.19 6409.72 4671.59 6466.2L4672.15 6573.08L4672.22 6624.26L4479.12 6756.1L4226.18 6614.6L4195.53 6142.38L4201.23 6141.76C4216.22 6140.15 4233.12 6138.53 4251.55 6137.02C4323.92 6131.1 4397.75 6128.5 4466.51 6131.12L4476.37 6131.54Z" fill="#253368"/>
<path fill-rule="evenodd" clip-rule="evenodd" d="M3880.16 5926.78C3880.55 5951.43 3864.22 5971.65 3843.7 5971.99C3823.17 5972.32 3806.21 5952.62 3805.8 5927.97C3805.41 5903.35 3821.73 5883.1 3842.26 5882.76C3862.81 5882.43 3879.77 5902.13 3880.16 5926.78Z" fill="white"/>
<path fill-rule="evenodd" clip-rule="evenodd" d="M3939.49 6379.47C3939.87 6404.09 3923.55 6424.34 3903.02 6424.68C3882.5 6425.01 3865.54 6405.31 3865.12 6380.66C3864.74 6356.04 3881.06 6335.79 3901.59 6335.46C3922.14 6335.12 3939.1 6354.82 3939.49 6379.47Z" fill="white"/>
<path fill-rule="evenodd" clip-rule="evenodd" d="M3977.11 6869.69C3977.5 6894.34 3961.17 6914.56 3940.65 6914.89C3920.12 6915.22 3903.16 6895.53 3902.75 6870.88C3902.36 6846.25 3918.68 6826 3939.21 6825.67C3959.76 6825.34 3976.72 6845.07 3977.11 6869.69Z" fill="white"/>
<path fill-rule="evenodd" clip-rule="evenodd" d="M3991.95 7330.53C3992.34 7355.15 3976.02 7375.4 3955.49 7375.73C3934.96 7376.07 3918 7356.37 3917.59 7331.72C3917.2 7307.1 3933.52 7286.85 3954.05 7286.51C3974.58 7286.18 3991.54 7305.88 3991.95 7330.53Z" fill="white"/>
<path fill-rule="evenodd" clip-rule="evenodd" d="M3994.31 7940.3C3994.69 7964.95 3978.37 7985.18 3957.84 7985.51C3937.32 7985.84 3920.36 7966.14 3919.94 7941.49C3919.55 7916.87 3935.88 7896.62 3956.4 7896.29C3976.96 7895.96 3993.92 7915.65 3994.31 7940.3Z" fill="white"/>
<path d="M3258.18 5586.19C3263.23 5581.9 3270.58 5582.08 3275.42 5586.33L3276.8 5587.72L3613.76 5985.07L3854.32 5705.23C3858.65 5700.2 3865.93 5699.22 3871.38 5702.66L3872.95 5703.82C3877.98 5708.15 3878.96 5715.43 3875.52 5720.88L3874.36 5722.45L3623.71 6014.04C3618.86 6019.69 3610.43 6020.13 3605.02 6015.4L3603.62 6013.98L3256.64 5604.81C3251.93 5599.25 3252.61 5590.91 3258.18 5586.19Z" fill="#253368"/>
<path d="M4264.03 5604.07C4266.24 5597.12 4273.67 5593.28 4280.63 5595.49C4287 5597.52 4290.76 5603.93 4289.63 5610.34L4289.21 5612.09L4184.22 5941.91C4181.62 5950.06 4172.21 5953.49 4165.06 5949.37L4163.57 5948.37L3866.11 5719.19C3860.33 5714.74 3859.26 5706.44 3863.71 5700.66C3867.76 5695.41 3874.98 5694.04 3880.6 5697.18L3882.24 5698.26L4164.75 5915.93L4264.03 5604.07Z" fill="#253368"/>
<path d="M4251.1 8435.46C4256.51 8434.65 4261.55 8438.38 4262.35 8443.79L4264.91 8462.7L4265.52 8467.54C4267.88 8486.51 4270.24 8507.98 4272.45 8531.53C4282.51 8639.04 4285.93 8749.94 4278.78 8853.64C4262.09 9095.59 4191.69 9249.1 4048.81 9268.56C4043.39 9269.3 4038.4 9265.5 4037.66 9260.08C4036.93 9254.66 4040.72 9249.67 4046.14 9248.93C4176.17 9231.22 4242.91 9085.69 4259.02 8852.28C4266.09 8749.79 4262.69 8639.9 4252.73 8533.37L4250.82 8513.89C4249.53 8501.24 4248.2 8489.32 4246.87 8478.18L4244.68 8460.73L4242.76 8446.72C4241.96 8441.31 4245.69 8436.27 4251.1 8435.46Z" fill="#597EF7"/>
<path d="M3225.78 4599.28C3227.83 4594.21 3233.6 4591.76 3238.68 4593.81L3242.15 4595.34C3244.21 4596.31 3246.74 4597.59 3249.62 4599.18C3257.57 4603.57 3265.52 4608.88 3272.97 4615.17C3300.4 4638.33 3314.15 4668.34 3305.69 4704.66C3302.49 4718.42 3296.17 4725.77 3284.4 4732.77L3279.33 4735.62C3269.23 4741.15 3266.71 4743.88 3265.78 4752.45C3263.99 4768.91 3271.48 4781.21 3285.85 4790.64C3290.63 4793.78 3295.82 4796.33 3301.01 4798.31L3305.65 4799.92C3306.46 4800.17 3307.11 4800.36 3307.58 4800.47C3312.89 4801.77 3316.15 4807.13 3314.85 4812.44C3313.55 4817.76 3308.19 4821.01 3302.88 4819.71C3295.68 4817.95 3285.39 4814.03 3274.99 4807.21C3254.93 4794.05 3243.4 4775.1 3246.08 4750.32C3247.75 4734.98 3253.74 4727.57 3266.9 4719.9L3271.78 4717.17C3281.09 4712.05 3284.44 4708.57 3286.4 4700.17C3292.95 4672.04 3282.44 4649.09 3260.2 4630.31C3253.81 4624.92 3246.94 4620.32 3240.06 4616.53C3235.98 4614.28 3232.88 4612.83 3231.25 4612.17C3226.18 4610.12 3223.73 4604.35 3225.78 4599.28Z" fill="#DD936F"/>
<path d="M4426.96 9632.28C4432.42 9631.93 4437.12 9636.07 4437.47 9641.53C4437.78 9646.44 4434.46 9650.75 4429.81 9651.81L4428.22 9652.04L4101.35 9672.87C4095.9 9673.22 4091.19 9669.08 4090.84 9663.62C4090.53 9658.71 4093.85 9654.4 4098.5 9653.34L4100.09 9653.11L4426.96 9632.28Z" fill="#597EF7"/>
<path fill-rule="evenodd" clip-rule="evenodd" d="M6705.45 5482.42C6705.45 5482.42 6990.01 4634.15 7312.2 4428.27C7408.12 4431.81 7318.18 4558.15 7251.42 4661.54C7217.28 4714.41 7194.76 4781.19 7194.76 4781.19C7194.76 4781.19 7326.31 4767.44 7301.08 4879.1C7406.48 4874.01 7368.33 4991.97 7368.33 4991.97C7368.33 4991.97 7449.36 4992.14 7423.3 5101.72C7405.4 5177.05 7303.9 5265.96 7280.63 5345.23C7190.92 5650.87 7043.55 5667.77 6984.37 5677.15C6834.59 5700.83 6742.63 5643.81 6705.45 5482.42Z" fill="#FFC999"/>
<path d="M6890.31 5099.36L7005.65 4849.6L7008.53 4838.78C7034.05 4747.14 7074.49 4709.62 7109.13 4742.71C7138.92 4771.16 7144.18 4843.79 7117.5 4909.8C7064.39 5041.2 7059.03 5102.01 7078.13 5173.71L7084.44 5196.65C7087.98 5210.23 7090.04 5221.13 7090.89 5232.69C7094.56 5282.32 7092.14 5328.52 7078.33 5373.09C7058.15 5438.21 7016.43 5484.1 6948.62 5502.62C6943.34 5504.06 6937.89 5500.95 6936.45 5495.67C6935.01 5490.39 6938.12 5484.95 6943.4 5483.51C7050.71 5454.2 7080.34 5358.57 7071.14 5234.15C7070.49 5225.41 7069.04 5216.97 7066.59 5206.86L7063.87 5196.43C7063 5193.25 7061.92 5189.38 7060.3 5183.62L7057.77 5174.12C7039.01 5100.12 7045.58 5034.88 7099.14 4902.38C7123.08 4843.14 7118.43 4778.99 7095.45 4757.03C7076.91 4739.32 7049.52 4764.85 7027.25 4844.92L7024.25 4856.18L6908.3 5107.66C6906.01 5112.62 6900.13 5114.79 6895.16 5112.5C6890.75 5110.47 6888.54 5105.59 6889.71 5101.05L6890.31 5099.36Z" fill="#DD936F"/>
<path d="M7305.44 4870.21C7310.36 4872.62 7312.39 4878.55 7309.98 4883.46L7306.22 4890.93C7303.22 4896.82 7299.79 4903.38 7295.99 4910.43C7285.14 4930.6 7273.5 4950.77 7261.52 4969.63C7248.7 4989.83 7236.23 5007.33 7224.33 5021.39C7200.05 5050.07 7178.85 5064.11 7159.42 5058.16C7115.78 5044.8 7102.38 5012.66 7113.31 4970.9C7117.45 4955.09 7124.87 4938.48 7134.64 4921.62C7139.97 4912.42 7145.67 4903.71 7151.38 4895.75L7155.94 4889.55C7157.25 4887.82 7158.32 4886.45 7159.12 4885.47C7162.57 4881.23 7168.81 4880.59 7173.05 4884.04C7177.29 4887.49 7177.94 4893.73 7174.48 4897.97L7170.41 4903.26C7169.53 4904.46 7168.54 4905.8 7167.48 4907.29C7162.13 4914.76 7156.77 4922.94 7151.78 4931.55C7142.83 4947 7136.1 4962.06 7132.47 4975.92C7124.01 5008.23 7132.8 5029.29 7165.22 5039.22C7174.05 5041.93 7189.84 5031.47 7209.21 5008.6C7220.45 4995.31 7232.42 4978.51 7244.8 4959.02C7256.5 4940.6 7267.9 4920.82 7278.55 4901.04L7283.86 4891.05L7292.19 4874.75C7294.6 4869.84 7300.53 4867.81 7305.44 4870.21Z" fill="#DD936F"/>
<path d="M7354.03 4994.51C7355.79 4989.33 7361.41 4986.55 7366.59 4988.3C7371.77 4990.06 7374.55 4995.68 7372.8 5000.86L7370.56 5007.06L7367.62 5014.67C7366.56 5017.34 7365.42 5020.12 7364.21 5023C7357.27 5039.48 7349.25 5055.96 7340.2 5071.4C7312.12 5119.36 7280.41 5147.69 7244.23 5144.83C7208.64 5142.02 7192.02 5118.74 7191.07 5084.45C7190.72 5071.97 7192.44 5058.81 7195.51 5045.77C7197.19 5038.64 7198.88 5033.1 7200.05 5029.82C7201.89 5024.67 7207.56 5021.98 7212.71 5023.82C7217.86 5025.66 7220.54 5031.33 7218.7 5036.48L7217.6 5039.82C7216.78 5042.51 7215.79 5046.08 7214.79 5050.3C7212.09 5061.82 7210.58 5073.35 7210.87 5083.9C7211.57 5109.04 7221.67 5123.18 7245.79 5125.08C7271.9 5127.15 7298.54 5103.35 7323.11 5061.39C7331.68 5046.77 7339.33 5031.05 7345.95 5015.31L7349.21 5007.37L7353.28 4996.66C7353.62 4995.72 7353.87 4995 7354.03 4994.51Z" fill="#DD936F"/>
<path d="M7428.48 5075.81C7433.79 5077.12 7437.04 5082.48 7435.74 5087.79L7434.22 5093.45L7431.44 5102.84C7430.92 5104.5 7430.37 5106.21 7429.8 5107.96C7424.87 5122.95 7418.95 5137.95 7411.98 5152.02C7386.15 5204.18 7352.62 5231.34 7311 5215.38C7281.52 5204.08 7269.96 5182.92 7274.41 5156.81C7276.59 5144.02 7282.43 5130.81 7290.76 5117.57C7294.4 5111.78 7298.3 5106.35 7302.2 5101.43L7305.86 5096.96C7306.54 5096.17 7307.11 5095.53 7307.56 5095.03C7311.24 5090.99 7317.51 5090.7 7321.55 5094.38C7325.59 5098.06 7325.88 5104.33 7322.2 5108.37L7319.95 5110.99C7319.29 5111.77 7318.55 5112.69 7317.72 5113.74C7314.24 5118.12 7310.76 5122.97 7307.52 5128.12C7300.46 5139.35 7295.61 5150.32 7293.94 5160.14C7291.05 5177.09 7297.57 5189.02 7318.09 5196.89C7346.93 5207.95 7372.4 5187.32 7394.23 5143.23C7400.74 5130.09 7406.33 5115.94 7410.98 5101.78C7412.06 5098.47 7413.04 5095.33 7413.92 5092.38L7416.5 5083.08C7417.66 5078.36 7422.02 5075.26 7426.71 5075.55L7428.48 5075.81Z" fill="#DD936F"/>
<path d="M5860.71 6521.42C5866.95 6525.2 5868.94 6533.32 5865.16 6539.56L5850.2 6563.79L5836.11 6586.22C5824.62 6604.39 5812.07 6623.95 5798.6 6644.62C5747.27 6723.34 5693.04 6802.07 5638.34 6875.6C5598.71 6928.85 5560.28 6977.4 5523.51 7020.18C5453.45 7101.7 5391.43 7160.09 5339.04 7190.86C5335.38 7193.01 5330.95 7193.25 5327.13 7191.61L5325.28 7190.63L4892.93 6916.69C4886.76 6912.78 4884.93 6904.62 4888.84 6898.46C4892.39 6892.86 4899.46 6890.83 4905.34 6893.45L4907.07 6894.37L5332.47 7163.92L5336.01 7161.69C5381.55 7132.33 5435.69 7080.96 5496.44 7011.1L5503.48 7002.96C5539.8 6960.69 5577.86 6912.62 5617.14 6859.83C5671.48 6786.79 5725.41 6708.49 5776.46 6630.19L5789.56 6610.01C5800.2 6593.52 5810.18 6577.85 5819.41 6563.18L5833.19 6541.11L5842.56 6525.87C5846.34 6519.63 5854.47 6517.64 5860.71 6521.42Z" fill="#253368"/>
<path d="M6044.06 6568.57C6046.6 6563.73 6052.59 6561.87 6057.43 6564.41C6061.74 6566.67 6063.69 6571.66 6062.28 6576.14L6061.59 6577.79L5829.29 7019.9C5826.74 7024.74 5820.76 7026.61 5815.91 7024.06C5811.61 7021.8 5809.66 7016.82 5811.07 7012.34L5811.75 7010.69L6044.06 6568.57Z" fill="#DD936F"/>
<path fill-rule="evenodd" clip-rule="evenodd" d="M2228.31 8056.75C2054.96 7984.52 1968.15 7789.53 2030.47 7612.39L2595.12 6007.71C2678.17 5771.73 2942.51 5654.04 3173.46 5750.26C3401.69 5845.34 3505.08 6111.12 3401.11 6335.43L2685.72 7878.81C2605.77 8051.33 2403.81 8129.87 2228.31 8056.75Z" fill="#FFC999"/>
<path fill-rule="evenodd" clip-rule="evenodd" d="M2251.69 6973.94L2605.44 5955.81C2706.89 5734.55 3079.9 5646.77 3299.34 5752.14C3518.75 5857.52 3609.1 6122.39 3499.83 6339.89L3000.58 7333.62C3000.58 7333.62 2440.2 7203.07 2251.69 6973.94Z" fill="#597EF7"/>
<path d="M3267.68 6583.59C3270.53 6576.88 3278.29 6573.75 3285.01 6576.61C3291.11 6579.2 3294.25 6585.85 3292.62 6592.08L3291.99 6593.93L2980.4 7326.12C2977.72 7332.4 2970.71 7335.61 2964.21 7333.52L2936.71 7324.43L2911.27 7315.76C2890.65 7308.66 2868.47 7300.84 2845.03 7292.36C2755.71 7260.04 2666.39 7224.78 2582.97 7187.73L2558.89 7176.91C2432.16 7119.28 2332.8 7062.92 2270.1 7009.35C2259.74 7000.5 2250.41 6991.73 2242.13 6983.06C2237.1 6977.78 2237.29 6969.42 2242.57 6964.38C2247.85 6959.35 2256.21 6959.55 2261.25 6964.82C2268.88 6972.82 2277.56 6980.97 2287.27 6989.27C2351.46 7044.12 2457.6 7103.15 2593.7 7163.58C2676.49 7200.35 2765.25 7235.39 2854.02 7267.51L2876.89 7275.73C2895.59 7282.38 2913.35 7288.57 2929.98 7294.25L2960.82 7304.62L3267.68 6583.59Z" fill="#253368"/>
<path fill-rule="evenodd" clip-rule="evenodd" d="M4403.2 7864.66C4393.02 7967.74 4307.43 8046.97 4203.85 8049.21L2383.21 8088.49C2174.15 8093 2006.8 7916.14 2022.87 7707.63C2038.56 7503.85 2223.23 7355.73 2425.57 7384.61L4228.36 7641.81C4336.92 7657.31 4413.99 7755.54 4403.2 7864.66Z" fill="#FFC999"/>
<path fill-rule="evenodd" clip-rule="evenodd" d="M4254.19 8332.83L4654.48 7080.69C4661.09 7060.02 4680.12 7045.91 4701.81 7045.64L5824.26 7030.44C5859.12 7029.98 5883.91 7064.2 5872.6 7097.18L5454.74 8316.07C5448.02 8335.68 5429.98 8349.16 5409.29 8350.07L4304.4 8398.54C4269.35 8400.06 4243.51 8366.25 4254.19 8332.83Z" fill="#4E5C93"/>
<path fill-rule="evenodd" clip-rule="evenodd" d="M4313.36 8317.56L4706.67 7087.21C4714.67 7062.23 4737.74 7045.14 4763.99 7044.78L5900.31 7029.39C5924.68 7029.09 5942.03 7053.02 5934.11 7076.07L5510.45 8311.84C5503.01 8333.55 5483.06 8348.49 5460.13 8349.49L4374.17 8397.13C4331.73 8398.98 4300.41 8358.01 4313.36 8317.56Z" fill="#253368"/>
<path fill-rule="evenodd" clip-rule="evenodd" d="M4860.54 7163.34C4873.24 7177.48 4868.67 7202.3 4850.33 7218.81C4831.99 7235.3 4806.81 7237.21 4794.09 7223.1C4781.39 7208.96 4785.95 7184.12 4804.3 7167.63C4822.64 7151.11 4847.84 7149.21 4860.54 7163.34Z" fill="#ADC6FF"/>
<path fill-rule="evenodd" clip-rule="evenodd" d="M4845.45 7178.12C4852.06 7185.45 4849.68 7198.34 4840.17 7206.92C4830.62 7215.47 4817.56 7216.47 4810.95 7209.13C4804.37 7201.8 4806.75 7188.91 4816.26 7180.33C4825.78 7171.79 4838.87 7170.79 4845.45 7178.12Z" fill="#E4EBF7"/>
<path fill-rule="evenodd" clip-rule="evenodd" d="M4753.85 8097.39C4818.34 8091.14 4852.26 8064.16 4846.14 8010.44C4923.71 7986.04 4915.06 7920.33 4915.06 7920.33C4915.06 7920.33 5064.36 7918.04 5089.48 7854.24C5099.25 7829.45 5080.3 7802.95 5053.74 7801.15C4733.85 7779.46 4505.75 7609.96 4505.75 7609.96C4505.75 7609.96 4631.52 7425.3 4618.21 7340.06C4614.28 7314.86 4581.33 7306.72 4565.92 7327.06C4434.04 7501.1 4169.59 7637.57 4169.59 7637.57C4169.59 7637.57 3852.14 7935 4196.48 8069.86C4196.48 8069.86 4459 8174.47 4641.75 8161.21C4728.29 8154.96 4753.85 8097.39 4753.85 8097.39Z" fill="#FFC999"/>
<path d="M4679.79 7863.63C4682.46 7858.85 4688.49 7857.14 4693.27 7859.81C4716.17 7872.62 4742.94 7883.06 4772.8 7891.3C4808.38 7901.12 4846.6 7907.41 4885.04 7910.82L4896.74 7911.78C4911.8 7912.9 4924.71 7913.41 4934.77 7913.54L4942.21 7913.55C4947.68 7913.48 4952.17 7917.85 4952.25 7923.32C4952.31 7928.25 4948.78 7932.38 4944.08 7933.21L4942.48 7933.36L4938.4 7933.37C4925.01 7933.33 4906.04 7932.58 4883.29 7930.56C4843.74 7927.04 4804.38 7920.57 4767.53 7910.39C4736.23 7901.75 4708.01 7890.75 4683.6 7877.1C4678.83 7874.43 4677.12 7868.4 4679.79 7863.63Z" fill="#DD936F"/>
<path d="M4649.68 7961.93C4652.06 7957.01 4657.99 7954.95 4662.91 7957.33C4665.86 7958.75 4668.84 7960.14 4671.84 7961.5C4709.82 7978.63 4750.61 7989.62 4791.57 7995.66C4816.87 7999.38 4837.14 8000.58 4849.75 8000.5C4855.38 8000.42 4859.87 8004.79 4859.95 8010.26C4860.01 8015.18 4856.48 8019.32 4851.78 8020.15L4850.18 8020.3H4846.63L4839.3 8020.14C4826.24 8019.68 4808.98 8018.24 4788.69 8015.25C4746.03 8008.97 4703.5 7997.51 4663.69 7979.55C4660.53 7978.13 4657.4 7976.66 4654.29 7975.16C4649.37 7972.78 4647.3 7966.86 4649.68 7961.93Z" fill="#DD936F"/>
<path d="M4592.75 8071.78C4595.13 8066.85 4601.05 8064.79 4605.98 8067.17C4616.51 8072.27 4641.39 8077.02 4675.22 8080.92C4692.51 8082.92 4711.07 8084.58 4729.64 8085.92L4754.35 8087.5C4759.82 8087.78 4764.02 8092.43 4763.74 8097.89C4763.47 8103.36 4758.81 8107.56 4753.35 8107.28L4733.06 8106.02L4728.21 8105.68C4709.38 8104.32 4690.55 8102.63 4672.95 8100.6L4660.6 8099.09C4630.79 8095.23 4609.09 8090.68 4597.35 8085C4592.43 8082.62 4590.37 8076.7 4592.75 8071.78Z" fill="#DD936F"/>
<path d="M2426.9 7374.79L4184.73 7614.92C4190.15 7615.66 4193.95 7620.66 4193.21 7626.08C4192.54 7630.95 4188.43 7634.51 4183.66 7634.64L4182.05 7634.55L2424.22 7394.42C2418.8 7393.68 2415 7388.68 2415.74 7383.26C2416.41 7378.39 2420.52 7374.82 2425.29 7374.7L2426.9 7374.79Z" fill="#DD936F"/>
</svg>
