<svg xmlns="http://www.w3.org/2000/svg" xmlns:xlink="http://www.w3.org/1999/xlink" viewBox="0,0,256,256" width="64px" height="64px"><defs><radialGradient cx="33.34" cy="38.064" r="43.888" gradientUnits="userSpaceOnUse" id="color-1"><stop offset="0" stop-color="#c5f1ff"></stop><stop offset="0.219" stop-color="#cdf3ff"></stop><stop offset="0.644" stop-color="#e4faff"></stop><stop offset="1" stop-color="#e9fbff"></stop></radialGradient><linearGradient x1="32" y1="5.723" x2="32" y2="55.93" gradientUnits="userSpaceOnUse" id="color-2"><stop offset="0" stop-color="#155cde"></stop><stop offset="0.619" stop-color="#1f7fe5"></stop><stop offset="1" stop-color="#279ceb"></stop></linearGradient></defs><g fill="none" fill-rule="nonzero" stroke="none" stroke-width="1" stroke-linecap="butt" stroke-linejoin="miter" stroke-miterlimit="10" stroke-dasharray="" stroke-dashoffset="0" font-family="none" font-weight="none" font-size="none" text-anchor="none" style="mix-blend-mode: normal"><g transform="scale(4,4)"><path d="M51.03,37.34c0.16,0.98 1.08,1.66 2.08,1.66h5.39c2.63,0 4.75,2.28 4.48,4.96c-0.24,2.34 -2.34,4.04 -4.69,4.04h-9.29c-1.22,0 -2.18,1.08 -1.97,2.34c0.16,0.98 1.08,1.66 2.08,1.66h8.39c1.24,0 2.37,0.5 3.18,1.32c0.82,0.81 1.32,1.94 1.32,3.18c0,2.49 -2.01,4.5 -4.5,4.5h-49c-1.52,0 -2.9,-0.62 -3.89,-1.61c-0.99,-0.99 -1.61,-2.37 -1.61,-3.89c0,-3.04 2.46,-5.5 5.5,-5.5h5.5c1.22,0 2.18,-1.08 1.97,-2.34c-0.16,-0.98 -1.08,-3.66 -2.08,-3.66h-8.39c-2.63,0 -4.75,-2.28 -4.48,-4.96c0.24,-2.34 2.34,-4.04 4.69,-4.04h2.29c1.71,0 3.09,-1.43 3,-3.16c-0.09,-1.62 -1.55,-2.84 -3.17,-2.84h-3.33c-2.63,0 -4.75,-2.28 -4.48,-4.96c0.24,-2.34 2.35,-4.04 4.69,-4.04h15.29c0.83,0 1.58,-0.34 2.12,-0.88c0.54,-0.54 0.88,-1.29 0.88,-2.12c0,-1.66 -1.34,-3 -3,-3h-1.18c-0.62,-0.09 -1.43,0 -2.32,0h-9c-1.52,0 -2.9,-0.62 -3.89,-1.61c-0.99,-0.99 -1.61,-2.37 -1.61,-3.89c0,-3.04 2.46,-5.5 5.5,-5.5h49c3.21,0 5.8,2.79 5.47,6.06c-0.29,2.86 -1.86,4.94 -4.73,4.94h-5.24c-2.76,0 -5,2.24 -5,5c0,1.38 0.56,2.63 1.46,3.54c0.91,0.9 2.16,1.46 3.54,1.46h6.5c3.21,0 5.8,2.79 5.47,6.06c-0.29,2.86 -2.86,4.94 -5.73,4.94h-5.24c-1.22,0 -2.18,1.08 -1.97,2.34z" fill="url(#color-1)"></path><path d="M58,32c0,13.35 -10.05,24.34 -23,25.83c-0.98,0.11 -1.99,0.17 -3,0.17c-1.71,0 -3.38,-0.17 -5,-0.49c-11.97,-2.32 -21,-12.86 -21,-25.51c0,-14.36 11.64,-26 26,-26c14.36,0 26,11.64 26,26z" fill="url(#color-2)"></path><path d="M22.973,57.169c-0.006,-0.002 -0.013,-0.004 -0.019,-0.006c0.007,0.002 0.013,0.004 0.019,0.006z" fill="#ffffff"></path><path d="M40,56.727v-6.266c0,-2.733 -1.831,-6.361 -4.341,-7.652c9.12,-0.931 13.472,-5.408 13.472,-11.485c0,-2.614 -1.125,-5.14 -3.035,-7.269c0.638,-2.114 1.44,-6.451 -0.233,-8.098c-4.119,0 -6.606,2.636 -7.195,3.341c-2.053,-0.696 -4.311,-1.088 -6.679,-1.088c-2.363,0 -4.613,0.392 -6.661,1.084c-0.597,-0.71 -3.081,-3.337 -7.191,-3.337c-1.666,1.645 -0.873,5.964 -0.242,8.082c-1.922,2.134 -3.054,4.667 -3.054,7.285c0,6.081 4.359,10.561 13.493,11.487c-1.584,0.816 -2.88,2.544 -3.63,4.421c-1.394,0.216 -2.875,0.273 -3.865,0.273c-2.041,0 -2.555,-0.32 -3.648,-1.733c-1.097,-1.41 -2.263,-2.361 -3.669,-2.753c-0.761,-0.079 -1.264,0.505 -0.604,1.016c2.226,1.537 2.382,4.049 3.28,5.692c0.81,1.478 2.479,2.273 4.355,2.273c0.469,0 2.334,0 3.447,0v4.737c0,0.25 3.998,1.319 7.998,1.319c4.553,0 8.002,-1.223 8.002,-1.329z" fill="#ffffff"></path></g></g></svg>